<svg width="38" height="38" viewBox="0 0 38 38" fill="none" xmlns="http://www.w3.org/2000/svg">
<path d="M31.7568 30.6897C32.0691 31.8574 31.0046 32.9261 29.8417 32.6135L25.0095 31.3128C23.8466 31.0003 23.457 29.5403 24.3085 28.6862L27.8464 25.1339C28.6969 24.2789 30.1511 24.6701 30.4624 25.8377L31.7568 30.6897Z" fill="#FEA162"/>
<path d="M31.6112 15.6831C32.3383 18.4908 32.1831 21.4562 31.1655 24.1725C30.1489 26.8888 28.32 29.2234 25.9302 30.8578C23.5405 32.4932 20.7051 33.347 17.8125 33.3038C14.92 33.2606 12.1106 32.3234 9.7699 30.6187L14.961 23.4472C15.8294 24.0791 16.87 24.4277 17.9427 24.4428C19.0154 24.4588 20.067 24.1424 20.9524 23.5366C21.8388 22.9299 22.5169 22.065 22.8945 21.0575C23.2711 20.0499 23.3292 18.9509 23.0588 17.9092L31.6112 15.6831Z" fill="#FEA162"/>
<path d="M9.75427 30.7152C7.5697 29.1288 5.88762 26.9488 4.90867 24.4328C3.93073 21.9178 3.69704 19.1743 4.23667 16.5299C4.77529 13.8846 6.06516 11.4518 7.94983 9.51949C9.83551 7.58814 12.2367 6.23941 14.8677 5.63574L16.8486 14.2576C15.8727 14.4813 14.982 14.9806 14.2829 15.6976C13.5838 16.4136 13.1063 17.3161 12.9067 18.2968C12.7061 19.2765 12.7934 20.2944 13.1555 21.227C13.5186 22.1596 14.1425 22.9678 14.9519 23.5564L9.75427 30.7152Z" fill="#00B87C"/>
<path d="M14.9258 5.46442C18.4937 4.64382 22.2401 5.24845 25.3687 7.14979C28.4974 9.05214 30.7626 12.1015 31.6822 15.6501L23.1205 17.8769C22.7785 16.5611 21.9392 15.4302 20.779 14.7251C19.6188 14.02 18.2299 13.796 16.9073 14.1003L14.9258 5.46442Z" fill="#1A61DB"/>
<path d="M18.0504 22.3287C19.7395 22.3287 21.1088 20.9595 21.1088 19.2704C21.1088 17.5812 19.7395 16.2119 18.0504 16.2119C16.3613 16.2119 14.9919 17.5812 14.9919 19.2704C14.9919 20.9595 16.3613 22.3287 18.0504 22.3287Z" fill="#DC1AA3"/>
</svg>
