<svg width="118" height="42" viewBox="0 0 118 42" fill="none" xmlns="http://www.w3.org/2000/svg">
<rect width="118" height="42" rx="4" fill="#00B87C"/>
<path d="M36.316 17.254C36.25 17.362 36.181 17.443 36.109 17.497C36.037 17.545 35.947 17.569 35.839 17.569C35.725 17.569 35.596 17.521 35.452 17.425C35.314 17.329 35.14 17.224 34.93 17.11C34.726 16.99 34.483 16.882 34.201 16.786C33.919 16.684 33.583 16.633 33.193 16.633C32.833 16.633 32.515 16.678 32.239 16.768C31.969 16.858 31.741 16.984 31.555 17.146C31.369 17.308 31.228 17.5 31.132 17.722C31.042 17.938 30.997 18.175 30.997 18.433C30.997 18.763 31.084 19.039 31.258 19.261C31.432 19.477 31.66 19.663 31.942 19.819C32.23 19.975 32.557 20.113 32.923 20.233C33.289 20.347 33.661 20.47 34.039 20.602C34.423 20.734 34.798 20.884 35.164 21.052C35.53 21.22 35.854 21.433 36.136 21.691C36.424 21.949 36.655 22.264 36.829 22.636C37.003 23.008 37.09 23.461 37.09 23.995C37.09 24.571 36.991 25.111 36.793 25.615C36.595 26.119 36.307 26.56 35.929 26.938C35.557 27.31 35.095 27.604 34.543 27.82C33.997 28.036 33.373 28.144 32.671 28.144C32.257 28.144 31.852 28.102 31.456 28.018C31.066 27.94 30.691 27.829 30.331 27.685C29.977 27.535 29.644 27.355 29.332 27.145C29.02 26.935 28.741 26.701 28.495 26.443L29.107 25.435C29.161 25.351 29.23 25.285 29.314 25.237C29.398 25.189 29.491 25.165 29.593 25.165C29.731 25.165 29.884 25.231 30.052 25.363C30.22 25.489 30.421 25.63 30.655 25.786C30.895 25.936 31.183 26.077 31.519 26.209C31.855 26.335 32.257 26.398 32.725 26.398C33.487 26.398 34.075 26.212 34.489 25.84C34.909 25.468 35.119 24.955 35.119 24.301C35.119 23.935 35.032 23.638 34.858 23.41C34.684 23.176 34.453 22.981 34.165 22.825C33.883 22.669 33.559 22.537 33.193 22.429C32.827 22.321 32.455 22.207 32.077 22.087C31.699 21.961 31.327 21.817 30.961 21.655C30.595 21.487 30.268 21.271 29.98 21.007C29.698 20.737 29.47 20.407 29.296 20.017C29.122 19.621 29.035 19.129 29.035 18.541C29.035 18.073 29.125 17.62 29.305 17.182C29.491 16.744 29.758 16.357 30.106 16.021C30.46 15.679 30.895 15.406 31.411 15.202C31.927 14.998 32.515 14.896 33.175 14.896C33.919 14.896 34.6 15.013 35.218 15.247C35.842 15.481 36.379 15.814 36.829 16.246L36.316 17.254ZM40.9509 18.82V28H39.0159V18.82H40.9509ZM41.2749 16.048C41.2749 16.222 41.2389 16.387 41.1669 16.543C41.1009 16.699 41.0079 16.837 40.8879 16.957C40.7679 17.071 40.6269 17.164 40.4649 17.236C40.3089 17.302 40.1409 17.335 39.9609 17.335C39.7869 17.335 39.6219 17.302 39.4659 17.236C39.3159 17.164 39.1839 17.071 39.0699 16.957C38.9559 16.837 38.8629 16.699 38.7909 16.543C38.7249 16.387 38.6919 16.222 38.6919 16.048C38.6919 15.868 38.7249 15.7 38.7909 15.544C38.8629 15.388 38.9559 15.253 39.0699 15.139C39.1839 15.019 39.3159 14.926 39.4659 14.86C39.6219 14.788 39.7869 14.752 39.9609 14.752C40.1409 14.752 40.3089 14.788 40.4649 14.86C40.6269 14.926 40.7679 15.019 40.8879 15.139C41.0079 15.253 41.1009 15.388 41.1669 15.544C41.2389 15.7 41.2749 15.868 41.2749 16.048ZM46.6581 23.329C47.2581 23.329 47.7081 23.176 48.0081 22.87C48.3081 22.564 48.4581 22.165 48.4581 21.673C48.4581 21.169 48.3081 20.77 48.0081 20.476C47.7081 20.182 47.2581 20.035 46.6581 20.035C46.0641 20.035 45.6141 20.182 45.3081 20.476C45.0081 20.77 44.8581 21.169 44.8581 21.673C44.8581 21.913 44.8971 22.135 44.9751 22.339C45.0531 22.543 45.1671 22.72 45.3171 22.87C45.4671 23.014 45.6531 23.128 45.8751 23.212C46.1031 23.29 46.3641 23.329 46.6581 23.329ZM49.3491 28.45C49.3491 28.246 49.2891 28.084 49.1691 27.964C49.0551 27.838 48.8991 27.742 48.7011 27.676C48.5031 27.604 48.2721 27.553 48.0081 27.523C47.7441 27.487 47.4621 27.463 47.1621 27.451C46.8681 27.433 46.5651 27.418 46.2531 27.406C45.9471 27.388 45.6501 27.358 45.3621 27.316C45.0741 27.466 44.8371 27.646 44.6511 27.856C44.4711 28.066 44.3811 28.309 44.3811 28.585C44.3811 28.765 44.4261 28.933 44.5161 29.089C44.6121 29.245 44.7561 29.38 44.9481 29.494C45.1461 29.608 45.3951 29.698 45.6951 29.764C46.0011 29.83 46.3671 29.863 46.7931 29.863C47.6451 29.863 48.2841 29.731 48.7101 29.467C49.1361 29.203 49.3491 28.864 49.3491 28.45ZM51.2931 19.153V19.873C51.2931 20.113 51.1491 20.26 50.8611 20.314L49.9431 20.467C50.0991 20.815 50.1771 21.202 50.1771 21.628C50.1771 22.078 50.0871 22.486 49.9071 22.852C49.7331 23.218 49.4901 23.53 49.1781 23.788C48.8661 24.046 48.4941 24.244 48.0621 24.382C47.6301 24.52 47.1621 24.589 46.6581 24.589C46.4661 24.589 46.2771 24.58 46.0911 24.562C45.9111 24.538 45.7341 24.508 45.5601 24.472C45.3861 24.574 45.2571 24.682 45.1731 24.796C45.0891 24.91 45.0471 25.027 45.0471 25.147C45.0471 25.345 45.1341 25.492 45.3081 25.588C45.4821 25.684 45.7101 25.753 45.9921 25.795C46.2801 25.837 46.6071 25.864 46.9731 25.876C47.3391 25.888 47.7111 25.909 48.0891 25.939C48.4671 25.969 48.8391 26.02 49.2051 26.092C49.5711 26.158 49.8951 26.272 50.1771 26.434C50.4651 26.59 50.6961 26.803 50.8701 27.073C51.0441 27.343 51.1311 27.694 51.1311 28.126C51.1311 28.522 51.0321 28.909 50.8341 29.287C50.6361 29.665 50.3481 30.001 49.9701 30.295C49.5981 30.589 49.1421 30.823 48.6021 30.997C48.0621 31.177 47.4471 31.267 46.7571 31.267C46.0731 31.267 45.4761 31.201 44.9661 31.069C44.4621 30.937 44.0391 30.757 43.6971 30.529C43.3611 30.307 43.1091 30.049 42.9411 29.755C42.7791 29.461 42.6981 29.155 42.6981 28.837C42.6981 28.405 42.8331 28.036 43.1031 27.73C43.3791 27.424 43.7511 27.184 44.2191 27.01C43.9671 26.89 43.7631 26.725 43.6071 26.515C43.4571 26.305 43.3821 26.029 43.3821 25.687C43.3821 25.417 43.4811 25.135 43.6791 24.841C43.8771 24.547 44.1741 24.298 44.5701 24.094C44.1141 23.842 43.7541 23.509 43.4901 23.095C43.2261 22.675 43.0941 22.186 43.0941 21.628C43.0941 21.172 43.1811 20.761 43.3551 20.395C43.5351 20.029 43.7841 19.717 44.1021 19.459C44.4201 19.201 44.7951 19.003 45.2271 18.865C45.6651 18.727 46.1421 18.658 46.6581 18.658C47.4501 18.658 48.1401 18.823 48.7281 19.153H51.2931ZM54.6306 20.035C54.8286 19.831 55.0326 19.648 55.2426 19.486C55.4586 19.318 55.6866 19.174 55.9266 19.054C56.1666 18.934 56.4216 18.841 56.6916 18.775C56.9616 18.709 57.2556 18.676 57.5736 18.676C58.0776 18.676 58.5186 18.76 58.8966 18.928C59.2806 19.096 59.6016 19.333 59.8596 19.639C60.1236 19.945 60.3216 20.314 60.4536 20.746C60.5856 21.172 60.6516 21.643 60.6516 22.159V28H58.7256V22.159C58.7256 21.541 58.5816 21.061 58.2936 20.719C58.0116 20.377 57.5796 20.206 56.9976 20.206C56.5656 20.206 56.1636 20.305 55.7916 20.503C55.4256 20.701 55.0806 20.971 54.7566 21.313V28H52.8216V18.82H53.9916C54.2556 18.82 54.4236 18.943 54.4956 19.189L54.6306 20.035ZM72.8658 26.299C73.3638 26.299 73.8078 26.215 74.1978 26.047C74.5938 25.879 74.9268 25.645 75.1968 25.345C75.4728 25.045 75.6828 24.685 75.8268 24.265C75.9708 23.839 76.0428 23.368 76.0428 22.852V15.04H78.1398V22.852C78.1398 23.614 78.0168 24.319 77.7708 24.967C77.5308 25.615 77.1828 26.176 76.7268 26.65C76.2708 27.118 75.7158 27.487 75.0618 27.757C74.4138 28.021 73.6818 28.153 72.8658 28.153C72.0498 28.153 71.3148 28.021 70.6608 27.757C70.0128 27.487 69.4608 27.118 69.0048 26.65C68.5488 26.176 68.1978 25.615 67.9518 24.967C67.7118 24.319 67.5918 23.614 67.5918 22.852V15.04H69.6978V22.843C69.6978 23.359 69.7698 23.83 69.9138 24.256C70.0578 24.676 70.2648 25.039 70.5348 25.345C70.8048 25.645 71.1348 25.879 71.5248 26.047C71.9208 26.215 72.3678 26.299 72.8658 26.299ZM82.3542 25.696C82.6242 26.044 82.9182 26.29 83.2362 26.434C83.5602 26.572 83.9172 26.641 84.3072 26.641C85.0632 26.641 85.6512 26.365 86.0712 25.813C86.4972 25.261 86.7102 24.439 86.7102 23.347C86.7102 22.783 86.6622 22.303 86.5662 21.907C86.4702 21.505 86.3322 21.178 86.1522 20.926C85.9722 20.674 85.7532 20.491 85.4952 20.377C85.2372 20.263 84.9462 20.206 84.6222 20.206C84.1302 20.206 83.7042 20.314 83.3442 20.53C82.9902 20.74 82.6602 21.043 82.3542 21.439V25.696ZM82.2552 20.152C82.6392 19.702 83.0742 19.339 83.5602 19.063C84.0522 18.787 84.6222 18.649 85.2702 18.649C85.7862 18.649 86.2542 18.754 86.6742 18.964C87.0942 19.168 87.4542 19.468 87.7542 19.864C88.0542 20.26 88.2852 20.752 88.4472 21.34C88.6152 21.922 88.6992 22.591 88.6992 23.347C88.6992 24.025 88.6062 24.658 88.4202 25.246C88.2402 25.828 87.9792 26.335 87.6372 26.767C87.2952 27.193 86.8812 27.529 86.3952 27.775C85.9092 28.015 85.3602 28.135 84.7482 28.135C84.2082 28.135 83.7492 28.048 83.3712 27.874C82.9992 27.7 82.6602 27.46 82.3542 27.154V31.051H80.4192V18.82H81.5892C81.8532 18.82 82.0212 18.943 82.0932 19.189L82.2552 20.152Z" fill="white"/>
</svg>
