<svg width="1240" height="55" viewBox="0 0 1240 55" fill="none" xmlns="http://www.w3.org/2000/svg">
<path d="M0 0.775879H1240" stroke="#BBBAE7" stroke-opacity="0.15"/>
<path d="M505.381 52.3394C505.453 52.3345 505.519 52.3611 505.577 52.4191L506.012 52.8831C505.736 53.2021 505.398 53.451 504.997 53.6299C504.6 53.8039 504.122 53.8909 503.561 53.8909C503.087 53.8909 502.655 53.8087 502.263 53.6444C501.877 53.48 501.543 53.2505 501.263 52.9556C500.987 52.6608 500.772 52.3104 500.618 51.9044C500.468 51.4984 500.393 51.0537 500.393 50.5704C500.393 50.0822 500.475 49.6351 500.639 49.2291C500.804 48.8183 501.033 48.4679 501.328 48.1779C501.623 47.883 501.971 47.6559 502.372 47.4964C502.778 47.332 503.218 47.2499 503.692 47.2499C504.218 47.2499 504.663 47.332 505.026 47.4964C505.393 47.6559 505.714 47.871 505.99 48.1416L505.656 48.6129C505.632 48.6419 505.601 48.6709 505.562 48.6999C505.523 48.7289 505.477 48.7434 505.424 48.7434C505.357 48.7434 505.284 48.7168 505.207 48.6636C505.134 48.6105 505.038 48.5525 504.917 48.4896C504.796 48.422 504.641 48.3615 504.453 48.3084C504.269 48.2504 504.037 48.2214 503.757 48.2214C503.414 48.2214 503.107 48.277 502.836 48.3881C502.565 48.4945 502.333 48.6491 502.14 48.8521C501.947 49.0551 501.799 49.3016 501.698 49.5916C501.596 49.8816 501.546 50.2079 501.546 50.5704C501.546 50.9425 501.596 51.276 501.698 51.5709C501.804 51.8609 501.949 52.105 502.133 52.3031C502.316 52.5013 502.534 52.6535 502.785 52.7599C503.041 52.8614 503.319 52.9121 503.619 52.9121C503.87 52.9121 504.081 52.8928 504.25 52.8541C504.419 52.8155 504.566 52.7695 504.692 52.7164C504.823 52.6584 504.939 52.5955 505.04 52.5279C505.146 52.4602 505.26 52.3974 505.381 52.3394ZM498.232 50.5849C498.232 50.0967 498.295 49.6279 498.421 49.1784C498.546 48.724 498.725 48.3011 498.957 47.9096C499.189 47.5133 499.465 47.1556 499.784 46.8366C500.108 46.5128 500.465 46.2349 500.857 46.0029C501.248 45.7709 501.669 45.592 502.118 45.4664C502.568 45.3407 503.037 45.2779 503.525 45.2779C504.013 45.2779 504.482 45.3407 504.931 45.4664C505.386 45.592 505.809 45.7709 506.2 46.0029C506.592 46.2349 506.949 46.5128 507.273 46.8366C507.597 47.1556 507.872 47.5133 508.1 47.9096C508.332 48.3011 508.51 48.724 508.636 49.1784C508.762 49.6279 508.825 50.0967 508.825 50.5849C508.825 51.0682 508.762 51.537 508.636 51.9914C508.51 52.4409 508.332 52.8614 508.1 53.2529C507.872 53.6444 507.597 54.002 507.273 54.3259C506.949 54.6449 506.592 54.9204 506.2 55.1524C505.809 55.3844 505.386 55.5632 504.931 55.6889C504.482 55.8145 504.013 55.8774 503.525 55.8774C503.037 55.8774 502.568 55.8145 502.118 55.6889C501.669 55.5632 501.248 55.3844 500.857 55.1524C500.465 54.9204 500.108 54.6449 499.784 54.3259C499.465 54.002 499.189 53.6444 498.957 53.2529C498.725 52.8614 498.546 52.4409 498.421 51.9914C498.295 51.5419 498.232 51.073 498.232 50.5849ZM498.965 50.5849C498.965 51.015 499.018 51.4283 499.124 51.8246C499.23 52.221 499.38 52.5931 499.574 52.9411C499.772 53.2843 500.009 53.596 500.284 53.8764C500.564 54.1567 500.871 54.3984 501.205 54.6014C501.543 54.7995 501.908 54.9542 502.3 55.0654C502.691 55.1717 503.099 55.2249 503.525 55.2249C503.95 55.2249 504.359 55.1717 504.75 55.0654C505.146 54.9542 505.514 54.7995 505.852 54.6014C506.195 54.3984 506.505 54.1567 506.78 53.8764C507.06 53.596 507.3 53.2843 507.498 52.9411C507.696 52.5931 507.848 52.221 507.955 51.8246C508.066 51.4283 508.121 51.015 508.121 50.5849C508.121 49.9372 508 49.3306 507.759 48.7651C507.522 48.1948 507.196 47.6994 506.78 47.2789C506.369 46.8535 505.883 46.52 505.323 46.2784C504.762 46.0319 504.163 45.9086 503.525 45.9086C503.099 45.9086 502.691 45.9642 502.3 46.0754C501.908 46.1865 501.543 46.3436 501.205 46.5466C500.871 46.7448 500.564 46.9865 500.284 47.2716C500.009 47.5568 499.772 47.8734 499.574 48.2214C499.38 48.5645 499.23 48.9367 499.124 49.3379C499.018 49.739 498.965 50.1547 498.965 50.5849ZM517.286 54.5506C517.426 54.5506 517.537 54.5917 517.62 54.6739C517.702 54.756 517.743 54.8624 517.743 54.9929V55.7759H510.812V55.3336C510.812 55.2418 510.831 55.1475 510.87 55.0509C510.908 54.9542 510.969 54.8648 511.051 54.7826L514.379 51.4404C514.654 51.16 514.906 50.8918 515.133 50.6356C515.36 50.3746 515.553 50.1136 515.713 49.8526C515.872 49.5916 515.996 49.3282 516.083 49.0624C516.17 48.7917 516.213 48.5041 516.213 48.1996C516.213 47.8951 516.165 47.6293 516.068 47.4021C515.971 47.1701 515.838 46.9792 515.669 46.8294C515.505 46.6795 515.309 46.5684 515.082 46.4959C514.855 46.4185 514.611 46.3799 514.35 46.3799C514.084 46.3799 513.84 46.4185 513.618 46.4959C513.395 46.5732 513.197 46.682 513.023 46.8221C512.854 46.9575 512.711 47.1194 512.595 47.3079C512.479 47.4964 512.397 47.7042 512.349 47.9314C512.291 48.1005 512.211 48.2141 512.11 48.2721C512.013 48.3253 511.875 48.3398 511.696 48.3156L511.022 48.1996C511.09 47.726 511.22 47.3079 511.414 46.9454C511.612 46.578 511.858 46.2711 512.153 46.0246C512.453 45.7781 512.793 45.592 513.175 45.4664C513.557 45.3359 513.97 45.2706 514.415 45.2706C514.855 45.2706 515.266 45.3359 515.648 45.4664C516.029 45.5969 516.36 45.7878 516.641 46.0391C516.921 46.2856 517.141 46.5877 517.301 46.9454C517.46 47.303 517.54 47.709 517.54 48.1634C517.54 48.55 517.482 48.9101 517.366 49.2436C517.25 49.5723 517.093 49.8865 516.895 50.1861C516.696 50.4858 516.467 50.7782 516.206 51.0634C515.95 51.3485 515.677 51.6361 515.387 51.9261L512.646 54.7246C512.839 54.6715 513.035 54.6304 513.233 54.6014C513.431 54.5675 513.622 54.5506 513.806 54.5506H517.286ZM526.806 50.5849C526.806 51.4935 526.707 52.2814 526.509 52.9484C526.316 53.6105 526.05 54.1591 525.712 54.5941C525.373 55.0291 524.972 55.353 524.508 55.5656C524.049 55.7783 523.556 55.8846 523.029 55.8846C522.498 55.8846 522.002 55.7783 521.543 55.5656C521.089 55.353 520.692 55.0291 520.354 54.5941C520.016 54.1591 519.75 53.6105 519.556 52.9484C519.363 52.2814 519.266 51.4935 519.266 50.5849C519.266 49.6762 519.363 48.8884 519.556 48.2214C519.75 47.5544 520.016 47.0034 520.354 46.5684C520.692 46.1285 521.089 45.8023 521.543 45.5896C522.002 45.377 522.498 45.2706 523.029 45.2706C523.556 45.2706 524.049 45.377 524.508 45.5896C524.972 45.8023 525.373 46.1285 525.712 46.5684C526.05 47.0034 526.316 47.5544 526.509 48.2214C526.707 48.8884 526.806 49.6762 526.806 50.5849ZM525.465 50.5849C525.465 49.7922 525.398 49.1276 525.262 48.5911C525.132 48.0498 524.953 47.6148 524.726 47.2861C524.503 46.9575 524.245 46.723 523.95 46.5829C523.655 46.4379 523.348 46.3654 523.029 46.3654C522.71 46.3654 522.403 46.4379 522.108 46.5829C521.814 46.723 521.555 46.9575 521.333 47.2861C521.11 47.6148 520.932 48.0498 520.796 48.5911C520.666 49.1276 520.6 49.7922 520.6 50.5849C520.6 51.3775 520.666 52.0421 520.796 52.5786C520.932 53.1151 521.11 53.5477 521.333 53.8764C521.555 54.205 521.814 54.4419 522.108 54.5869C522.403 54.727 522.71 54.7971 523.029 54.7971C523.348 54.7971 523.655 54.727 523.95 54.5869C524.245 54.4419 524.503 54.205 524.726 53.8764C524.953 53.5477 525.132 53.1151 525.262 52.5786C525.398 52.0421 525.465 51.3775 525.465 50.5849ZM534.688 54.5506C534.828 54.5506 534.94 54.5917 535.022 54.6739C535.104 54.756 535.145 54.8624 535.145 54.9929V55.7759H528.214V55.3336C528.214 55.2418 528.233 55.1475 528.272 55.0509C528.311 54.9542 528.371 54.8648 528.453 54.7826L531.781 51.4404C532.057 51.16 532.308 50.8918 532.535 50.6356C532.762 50.3746 532.956 50.1136 533.115 49.8526C533.275 49.5916 533.398 49.3282 533.485 49.0624C533.572 48.7917 533.615 48.5041 533.615 48.1996C533.615 47.8951 533.567 47.6293 533.47 47.4021C533.374 47.1701 533.241 46.9792 533.072 46.8294C532.907 46.6795 532.711 46.5684 532.484 46.4959C532.257 46.4185 532.013 46.3799 531.752 46.3799C531.486 46.3799 531.242 46.4185 531.02 46.4959C530.797 46.5732 530.599 46.682 530.425 46.8221C530.256 46.9575 530.114 47.1194 529.998 47.3079C529.882 47.4964 529.799 47.7042 529.751 47.9314C529.693 48.1005 529.613 48.2141 529.512 48.2721C529.415 48.3253 529.277 48.3398 529.099 48.3156L528.424 48.1996C528.492 47.726 528.622 47.3079 528.816 46.9454C529.014 46.578 529.26 46.2711 529.555 46.0246C529.855 45.7781 530.196 45.592 530.578 45.4664C530.959 45.3359 531.373 45.2706 531.817 45.2706C532.257 45.2706 532.668 45.3359 533.05 45.4664C533.432 45.5969 533.763 45.7878 534.043 46.0391C534.323 46.2856 534.543 46.5877 534.703 46.9454C534.862 47.303 534.942 47.709 534.942 48.1634C534.942 48.55 534.884 48.9101 534.768 49.2436C534.652 49.5723 534.495 49.8865 534.297 50.1861C534.099 50.4858 533.869 50.7782 533.608 51.0634C533.352 51.3485 533.079 51.6361 532.789 51.9261L530.048 54.7246C530.242 54.6715 530.437 54.6304 530.636 54.6014C530.834 54.5675 531.025 54.5506 531.208 54.5506H534.688ZM543.614 54.7899V55.7759H538.046V54.7899H540.272V47.7066C540.272 47.494 540.279 47.2789 540.294 47.0614L538.445 48.6491C538.382 48.7023 538.319 48.7361 538.256 48.7506C538.194 48.7603 538.136 48.7603 538.082 48.7506C538.029 48.741 537.979 48.7216 537.93 48.6926C537.887 48.6636 537.853 48.6322 537.829 48.5984L537.423 48.0401L540.518 45.3649H541.57V54.7899H543.614ZM557.193 45.9086C557.193 46.0681 557.144 46.2228 557.048 46.3726L551.168 54.6304H557.106V55.7759H549.319V55.2249C549.319 55.1475 549.331 55.075 549.355 55.0074C549.384 54.9397 549.418 54.8745 549.457 54.8116L555.351 46.5321H549.595V45.3866H557.193V45.9086ZM564.669 48.4316V55.7759H563.901C563.717 55.7759 563.601 55.6865 563.553 55.5076L563.451 54.7174C563.132 55.0702 562.774 55.3554 562.378 55.5729C561.982 55.7855 561.527 55.8919 561.015 55.8919C560.614 55.8919 560.259 55.8266 559.949 55.6961C559.645 55.5608 559.389 55.3723 559.181 55.1306C558.973 54.889 558.816 54.5965 558.71 54.2534C558.608 53.9102 558.557 53.5308 558.557 53.1151V48.4316H559.848V53.1151C559.848 53.671 559.974 54.1011 560.225 54.4056C560.481 54.7101 560.87 54.8624 561.392 54.8624C561.774 54.8624 562.129 54.773 562.458 54.5941C562.791 54.4105 563.098 54.1591 563.379 53.8401V48.4316H564.669ZM568.231 49.9034C568.463 49.4007 568.748 49.0092 569.086 48.7289C569.424 48.4437 569.838 48.3011 570.326 48.3011C570.48 48.3011 570.628 48.318 570.768 48.3519C570.913 48.3857 571.041 48.4389 571.152 48.5114L571.058 49.4756C571.029 49.5965 570.957 49.6569 570.841 49.6569C570.773 49.6569 570.674 49.6424 570.543 49.6134C570.413 49.5844 570.265 49.5699 570.101 49.5699C569.869 49.5699 569.661 49.6037 569.478 49.6714C569.299 49.739 569.137 49.8405 568.992 49.9759C568.852 50.1064 568.724 50.2707 568.608 50.4689C568.496 50.6622 568.395 50.8845 568.303 51.1359V55.7759H567.005V48.4316H567.745C567.885 48.4316 567.982 48.4582 568.035 48.5114C568.088 48.5645 568.124 48.6564 568.144 48.7869L568.231 49.9034ZM573.94 48.4316V55.7759H572.65V48.4316H573.94ZM574.216 46.1261C574.216 46.2518 574.189 46.3702 574.136 46.4814C574.087 46.5877 574.02 46.6844 573.933 46.7714C573.851 46.8535 573.752 46.9188 573.636 46.9671C573.524 47.0155 573.406 47.0396 573.28 47.0396C573.155 47.0396 573.036 47.0155 572.925 46.9671C572.819 46.9188 572.724 46.8535 572.642 46.7714C572.56 46.6844 572.495 46.5877 572.447 46.4814C572.398 46.3702 572.374 46.2518 572.374 46.1261C572.374 46.0005 572.398 45.882 572.447 45.7709C572.495 45.6549 572.56 45.5558 572.642 45.4736C572.724 45.3866 572.819 45.319 572.925 45.2706C573.036 45.2223 573.155 45.1981 573.28 45.1981C573.406 45.1981 573.524 45.2223 573.636 45.2706C573.752 45.319 573.851 45.3866 573.933 45.4736C574.02 45.5558 574.087 45.6549 574.136 45.7709C574.189 45.882 574.216 46.0005 574.216 46.1261ZM581.462 49.7366C581.423 49.7898 581.384 49.8309 581.346 49.8599C581.307 49.8889 581.254 49.9034 581.186 49.9034C581.114 49.9034 581.034 49.8744 580.947 49.8164C580.86 49.7535 580.751 49.6859 580.621 49.6134C580.495 49.5409 580.338 49.4756 580.149 49.4176C579.966 49.3548 579.739 49.3234 579.468 49.3234C579.105 49.3234 578.786 49.3886 578.511 49.5191C578.235 49.6448 578.003 49.8285 577.815 50.0701C577.631 50.3118 577.491 50.6042 577.394 50.9474C577.303 51.2905 577.257 51.6748 577.257 52.1001C577.257 52.5448 577.307 52.9411 577.409 53.2891C577.51 53.6323 577.653 53.9223 577.837 54.1591C578.025 54.3911 578.25 54.57 578.511 54.6956C578.777 54.8165 579.074 54.8769 579.403 54.8769C579.717 54.8769 579.975 54.8406 580.178 54.7681C580.381 54.6908 580.548 54.6062 580.679 54.5144C580.814 54.4225 580.925 54.3404 581.012 54.2679C581.104 54.1905 581.193 54.1519 581.28 54.1519C581.387 54.1519 581.469 54.193 581.527 54.2751L581.889 54.7464C581.73 54.9445 581.549 55.1137 581.346 55.2539C581.143 55.394 580.923 55.5125 580.686 55.6091C580.454 55.701 580.21 55.7686 579.954 55.8121C579.698 55.8556 579.437 55.8774 579.171 55.8774C578.712 55.8774 578.284 55.7928 577.887 55.6236C577.496 55.4545 577.155 55.2104 576.865 54.8914C576.575 54.5675 576.348 54.1712 576.184 53.7024C576.019 53.2335 575.937 52.6995 575.937 52.1001C575.937 51.554 576.012 51.0489 576.162 50.5849C576.317 50.1209 576.539 49.7221 576.829 49.3886C577.124 49.0503 577.484 48.7869 577.909 48.5984C578.339 48.4099 578.832 48.3156 579.388 48.3156C579.905 48.3156 580.36 48.4002 580.751 48.5694C581.148 48.7337 581.498 48.9681 581.802 49.2726L581.462 49.7366ZM584.863 49.4104C585.177 49.0769 585.525 48.811 585.907 48.6129C586.288 48.4147 586.728 48.3156 587.226 48.3156C587.627 48.3156 587.98 48.3833 588.285 48.5186C588.594 48.6491 588.85 48.8376 589.053 49.0841C589.261 49.3258 589.418 49.6182 589.524 49.9614C589.631 50.3045 589.684 50.684 589.684 51.0996V55.7759H588.386V51.0996C588.386 50.5438 588.258 50.1136 588.002 49.8091C587.75 49.4998 587.366 49.3451 586.849 49.3451C586.467 49.3451 586.11 49.437 585.776 49.6206C585.447 49.8043 585.143 50.0532 584.863 50.3674V55.7759H583.565V45.0966H584.863V49.4104ZM595.92 52.4699C595.326 52.4892 594.818 52.5375 594.398 52.6149C593.982 52.6874 593.642 52.784 593.376 52.9049C593.115 53.0257 592.924 53.1683 592.803 53.3326C592.687 53.497 592.629 53.6806 592.629 53.8836C592.629 54.077 592.66 54.2437 592.723 54.3839C592.786 54.524 592.871 54.64 592.977 54.7319C593.088 54.8189 593.216 54.8841 593.361 54.9276C593.511 54.9663 593.671 54.9856 593.84 54.9856C594.067 54.9856 594.275 54.9639 594.463 54.9204C594.652 54.872 594.828 54.8044 594.992 54.7174C595.162 54.6304 595.321 54.5265 595.471 54.4056C595.626 54.2848 595.775 54.147 595.92 53.9924V52.4699ZM591.752 49.4684C592.158 49.0769 592.595 48.7845 593.064 48.5911C593.533 48.3978 594.052 48.3011 594.623 48.3011C595.034 48.3011 595.398 48.3688 595.717 48.5041C596.036 48.6395 596.305 48.828 596.522 49.0696C596.74 49.3113 596.904 49.6037 597.015 49.9469C597.126 50.29 597.182 50.667 597.182 51.0779V55.7759H596.609C596.484 55.7759 596.387 55.7565 596.319 55.7179C596.252 55.6744 596.198 55.5922 596.16 55.4714L596.015 54.7754C595.821 54.9542 595.633 55.1137 595.449 55.2539C595.266 55.3892 595.072 55.5052 594.869 55.6019C594.666 55.6937 594.449 55.7638 594.217 55.8121C593.99 55.8653 593.736 55.8919 593.455 55.8919C593.17 55.8919 592.902 55.8532 592.651 55.7759C592.399 55.6937 592.179 55.5729 591.991 55.4134C591.807 55.2539 591.66 55.0533 591.549 54.8116C591.442 54.5651 591.389 54.2751 591.389 53.9416C591.389 53.6516 591.469 53.3737 591.628 53.1079C591.788 52.8372 592.047 52.598 592.404 52.3901C592.762 52.1823 593.228 52.0131 593.803 51.8826C594.379 51.7473 595.084 51.67 595.92 51.6506V51.0779C595.92 50.5075 595.797 50.0774 595.551 49.7874C595.304 49.4925 594.944 49.3451 594.47 49.3451C594.151 49.3451 593.883 49.3862 593.666 49.4684C593.453 49.5457 593.267 49.6351 593.107 49.7366C592.953 49.8333 592.817 49.9227 592.701 50.0049C592.59 50.0822 592.479 50.1209 592.368 50.1209C592.281 50.1209 592.206 50.0991 592.143 50.0556C592.08 50.0073 592.027 49.9493 591.984 49.8816L591.752 49.4684ZM601.593 55.8919C601.013 55.8919 600.566 55.73 600.252 55.4061C599.943 55.0823 599.788 54.6159 599.788 54.0069V49.5119H598.904C598.826 49.5119 598.761 49.4901 598.708 49.4466C598.655 49.3983 598.628 49.3258 598.628 49.2291V48.7144L599.832 48.5621L600.129 46.2929C600.143 46.2204 600.175 46.1624 600.223 46.1189C600.276 46.0705 600.344 46.0464 600.426 46.0464H601.079V48.5766H603.203V49.5119H601.079V53.9199C601.079 54.2292 601.154 54.4588 601.303 54.6086C601.453 54.7585 601.647 54.8334 601.883 54.8334C602.019 54.8334 602.135 54.8165 602.231 54.7826C602.333 54.744 602.42 54.7029 602.492 54.6594C602.565 54.6159 602.625 54.5772 602.674 54.5434C602.727 54.5047 602.773 54.4854 602.811 54.4854C602.879 54.4854 602.939 54.5265 602.993 54.6086L603.37 55.2249C603.147 55.4327 602.879 55.597 602.565 55.7179C602.251 55.8339 601.927 55.8919 601.593 55.8919ZM604.608 54.9784C604.608 54.8527 604.63 54.7343 604.673 54.6231C604.721 54.512 604.784 54.4153 604.862 54.3331C604.944 54.251 605.04 54.1857 605.152 54.1374C605.263 54.089 605.381 54.0649 605.507 54.0649C605.633 54.0649 605.751 54.089 605.862 54.1374C605.973 54.1857 606.07 54.251 606.152 54.3331C606.234 54.4153 606.3 54.512 606.348 54.6231C606.396 54.7343 606.42 54.8527 606.42 54.9784C606.42 55.1089 606.396 55.2297 606.348 55.3409C606.3 55.4472 606.234 55.5415 606.152 55.6236C606.07 55.7058 605.973 55.7686 605.862 55.8121C605.751 55.8605 605.633 55.8846 605.507 55.8846C605.381 55.8846 605.263 55.8605 605.152 55.8121C605.04 55.7686 604.944 55.7058 604.862 55.6236C604.784 55.5415 604.721 55.4472 604.673 55.3409C604.63 55.2297 604.608 55.1089 604.608 54.9784ZM617.882 51.9189L616.251 47.6921C616.203 47.5665 616.152 47.4215 616.099 47.2571C616.046 47.088 615.995 46.9091 615.947 46.7206C615.845 47.1121 615.741 47.4384 615.635 47.6994L614.004 51.9189H617.882ZM620.811 55.7759H619.724C619.598 55.7759 619.497 55.7445 619.419 55.6816C619.342 55.6188 619.284 55.539 619.245 55.4424L618.274 52.9339H613.612L612.641 55.4424C612.612 55.5294 612.556 55.6067 612.474 55.6744C612.392 55.742 612.29 55.7759 612.169 55.7759H611.082L615.236 45.3866H616.657L620.811 55.7759ZM623.469 45.0966V55.7759H622.179V45.0966H623.469ZM627.186 45.0966V55.7759H625.896V45.0966H627.186ZM636.752 50.4181C637.158 50.4181 637.515 50.3698 637.825 50.2731C638.139 50.1716 638.4 50.0315 638.608 49.8526C638.82 49.669 638.98 49.4515 639.086 49.2001C639.192 48.9488 639.246 48.6709 639.246 48.3664C639.246 47.7477 639.043 47.2813 638.637 46.9671C638.231 46.653 637.622 46.4959 636.81 46.4959H635.273V50.4181H636.752ZM641.551 55.7759H640.304C640.048 55.7759 639.859 55.6768 639.739 55.4786L637.042 51.7666C636.959 51.6506 636.87 51.5685 636.773 51.5201C636.681 51.467 636.536 51.4404 636.338 51.4404H635.273V55.7759H633.873V45.3866H636.81C637.467 45.3866 638.035 45.4543 638.513 45.5896C638.992 45.7201 639.386 45.911 639.695 46.1624C640.009 46.4137 640.241 46.7182 640.391 47.0759C640.541 47.4287 640.616 47.825 640.616 48.2649C640.616 48.6322 640.558 48.9754 640.442 49.2944C640.326 49.6134 640.157 49.901 639.934 50.1571C639.717 50.4085 639.449 50.6235 639.13 50.8024C638.815 50.9812 638.458 51.1165 638.057 51.2084C638.235 51.3099 638.39 51.4573 638.521 51.6506L641.551 55.7759ZM644.213 48.4316V55.7759H642.923V48.4316H644.213ZM644.489 46.1261C644.489 46.2518 644.462 46.3702 644.409 46.4814C644.361 46.5877 644.293 46.6844 644.206 46.7714C644.124 46.8535 644.025 46.9188 643.909 46.9671C643.798 47.0155 643.679 47.0396 643.554 47.0396C643.428 47.0396 643.31 47.0155 643.198 46.9671C643.092 46.9188 642.998 46.8535 642.916 46.7714C642.834 46.6844 642.768 46.5877 642.72 46.4814C642.672 46.3702 642.647 46.2518 642.647 46.1261C642.647 46.0005 642.672 45.882 642.72 45.7709C642.768 45.6549 642.834 45.5558 642.916 45.4736C642.998 45.3866 643.092 45.319 643.198 45.2706C643.31 45.2223 643.428 45.1981 643.554 45.1981C643.679 45.1981 643.798 45.2223 643.909 45.2706C644.025 45.319 644.124 45.3866 644.206 45.4736C644.293 45.5558 644.361 45.6549 644.409 45.7709C644.462 45.882 644.489 46.0005 644.489 46.1261ZM649.183 52.1871C649.444 52.1871 649.674 52.1509 649.872 52.0784C650.07 52.0059 650.237 51.9044 650.372 51.7739C650.507 51.6434 650.609 51.4887 650.677 51.3099C650.744 51.1262 650.778 50.9256 650.778 50.7081C650.778 50.2586 650.64 49.901 650.365 49.6351C650.094 49.3693 649.7 49.2364 649.183 49.2364C648.661 49.2364 648.262 49.3693 647.987 49.6351C647.716 49.901 647.581 50.2586 647.581 50.7081C647.581 50.9256 647.615 51.1262 647.682 51.3099C647.755 51.4887 647.859 51.6434 647.994 51.7739C648.129 51.9044 648.296 52.0059 648.494 52.0784C648.693 52.1509 648.922 52.1871 649.183 52.1871ZM651.51 56.1746C651.51 55.9958 651.46 55.8508 651.358 55.7396C651.257 55.6285 651.119 55.5415 650.945 55.4786C650.776 55.4158 650.578 55.3723 650.35 55.3481C650.123 55.3191 649.882 55.2974 649.625 55.2829C649.374 55.2684 649.118 55.2539 648.857 55.2394C648.596 55.2249 648.345 55.2007 648.103 55.1669C647.832 55.2925 647.61 55.452 647.436 55.6454C647.267 55.8339 647.182 56.0562 647.182 56.3124C647.182 56.4767 647.223 56.629 647.305 56.7691C647.392 56.9141 647.523 57.0374 647.697 57.1389C647.871 57.2452 648.088 57.3274 648.349 57.3854C648.615 57.4482 648.927 57.4796 649.285 57.4796C649.633 57.4796 649.944 57.4482 650.22 57.3854C650.495 57.3225 650.727 57.2331 650.916 57.1171C651.109 57.0011 651.257 56.8634 651.358 56.7039C651.46 56.5444 651.51 56.368 651.51 56.1746ZM652.823 48.7216V49.2001C652.823 49.3596 652.721 49.4611 652.518 49.5046L651.684 49.6134C651.849 49.9324 651.931 50.2852 651.931 50.6719C651.931 51.0295 651.861 51.3558 651.721 51.6506C651.585 51.9406 651.397 52.1895 651.155 52.3974C650.913 52.6052 650.623 52.7647 650.285 52.8759C649.947 52.987 649.579 53.0426 649.183 53.0426C648.84 53.0426 648.516 53.0015 648.212 52.9194C648.057 53.016 647.939 53.12 647.856 53.2311C647.774 53.3375 647.733 53.4462 647.733 53.5574C647.733 53.7314 647.803 53.8643 647.943 53.9561C648.088 54.0431 648.277 54.106 648.509 54.1446C648.741 54.1833 649.004 54.2075 649.299 54.2171C649.599 54.2268 649.903 54.2437 650.213 54.2679C650.527 54.2872 650.831 54.3235 651.126 54.3766C651.426 54.4298 651.692 54.5168 651.924 54.6376C652.156 54.7585 652.342 54.9252 652.482 55.1379C652.627 55.3505 652.699 55.626 652.699 55.9644C652.699 56.2785 652.62 56.583 652.46 56.8779C652.305 57.1727 652.081 57.4337 651.786 57.6609C651.491 57.8929 651.129 58.0765 650.698 58.2119C650.273 58.352 649.792 58.4221 649.256 58.4221C648.719 58.4221 648.25 58.369 647.849 58.2626C647.448 58.1563 647.114 58.0137 646.849 57.8349C646.583 57.656 646.382 57.4482 646.247 57.2114C646.116 56.9794 646.051 56.7353 646.051 56.4791C646.051 56.1166 646.165 55.8097 646.392 55.5584C646.619 55.307 646.931 55.1065 647.327 54.9566C647.11 54.86 646.936 54.7319 646.805 54.5724C646.679 54.408 646.617 54.1881 646.617 53.9126C646.617 53.8063 646.636 53.6975 646.675 53.5864C646.713 53.4704 646.771 53.3568 646.849 53.2456C646.931 53.1296 647.03 53.0209 647.146 52.9194C647.262 52.8179 647.397 52.7285 647.552 52.6511C647.189 52.4481 646.907 52.1799 646.704 51.8464C646.501 51.508 646.399 51.1165 646.399 50.6719C646.399 50.3142 646.467 49.9904 646.602 49.7004C646.742 49.4055 646.936 49.1566 647.182 48.9536C647.429 48.7458 647.721 48.5863 648.059 48.4751C648.403 48.364 648.777 48.3084 649.183 48.3084C649.502 48.3084 649.799 48.3446 650.075 48.4171C650.35 48.4848 650.602 48.5863 650.829 48.7216H652.823ZM655.745 49.4104C656.059 49.0769 656.407 48.811 656.789 48.6129C657.171 48.4147 657.611 48.3156 658.108 48.3156C658.51 48.3156 658.862 48.3833 659.167 48.5186C659.476 48.6491 659.732 48.8376 659.935 49.0841C660.143 49.3258 660.3 49.6182 660.407 49.9614C660.513 50.3045 660.566 50.684 660.566 51.0996V55.7759H659.268V51.0996C659.268 50.5438 659.14 50.1136 658.884 49.8091C658.633 49.4998 658.249 49.3451 657.731 49.3451C657.35 49.3451 656.992 49.437 656.658 49.6206C656.33 49.8043 656.025 50.0532 655.745 50.3674V55.7759H654.447V45.0966H655.745V49.4104ZM664.978 55.8919C664.398 55.8919 663.951 55.73 663.637 55.4061C663.328 55.0823 663.173 54.6159 663.173 54.0069V49.5119H662.288C662.211 49.5119 662.146 49.4901 662.093 49.4466C662.04 49.3983 662.013 49.3258 662.013 49.2291V48.7144L663.216 48.5621L663.514 46.2929C663.528 46.2204 663.56 46.1624 663.608 46.1189C663.661 46.0705 663.729 46.0464 663.811 46.0464H664.463V48.5766H666.588V49.5119H664.463V53.9199C664.463 54.2292 664.538 54.4588 664.688 54.6086C664.838 54.7585 665.031 54.8334 665.268 54.8334C665.404 54.8334 665.52 54.8165 665.616 54.7826C665.718 54.744 665.805 54.7029 665.877 54.6594C665.95 54.6159 666.01 54.5772 666.058 54.5434C666.112 54.5047 666.158 54.4854 666.196 54.4854C666.264 54.4854 666.324 54.5265 666.377 54.6086L666.754 55.2249C666.532 55.4327 666.264 55.597 665.95 55.7179C665.636 55.8339 665.312 55.8919 664.978 55.8919ZM672.488 49.6424C672.43 49.7487 672.34 49.8019 672.219 49.8019C672.147 49.8019 672.065 49.7753 671.973 49.7221C671.881 49.669 671.768 49.611 671.632 49.5481C671.502 49.4805 671.345 49.42 671.161 49.3669C670.977 49.3089 670.76 49.2799 670.508 49.2799C670.291 49.2799 670.095 49.3089 669.921 49.3669C669.747 49.42 669.597 49.495 669.472 49.5916C669.351 49.6883 669.257 49.8019 669.189 49.9324C669.126 50.058 669.095 50.1958 669.095 50.3456C669.095 50.5341 669.148 50.6912 669.254 50.8169C669.365 50.9425 669.51 51.0513 669.689 51.1431C669.868 51.235 670.071 51.3171 670.298 51.3896C670.525 51.4573 670.757 51.5322 670.994 51.6144C671.236 51.6917 671.47 51.7787 671.697 51.8754C671.925 51.972 672.128 52.0929 672.306 52.2379C672.485 52.3829 672.628 52.5617 672.734 52.7744C672.845 52.9822 672.901 53.2335 672.901 53.5284C672.901 53.8667 672.841 54.1809 672.72 54.4709C672.599 54.756 672.42 55.005 672.183 55.2176C671.946 55.4255 671.656 55.5898 671.313 55.7106C670.97 55.8315 670.574 55.8919 670.124 55.8919C669.612 55.8919 669.148 55.8097 668.732 55.6454C668.317 55.4762 667.964 55.2611 667.674 55.0001L667.978 54.5071C668.017 54.4443 668.063 54.396 668.116 54.3621C668.169 54.3283 668.237 54.3114 668.319 54.3114C668.406 54.3114 668.498 54.3452 668.594 54.4129C668.691 54.4805 668.807 54.5555 668.942 54.6376C669.083 54.7198 669.252 54.7947 669.45 54.8624C669.648 54.93 669.895 54.9639 670.189 54.9639C670.441 54.9639 670.661 54.9325 670.849 54.8696C671.038 54.802 671.195 54.7125 671.32 54.6014C671.446 54.4902 671.538 54.3621 671.596 54.2171C671.659 54.0721 671.69 53.9175 671.69 53.7531C671.69 53.5501 671.635 53.3834 671.523 53.2529C671.417 53.1175 671.275 53.004 671.096 52.9121C670.917 52.8155 670.711 52.7333 670.479 52.6656C670.252 52.5931 670.018 52.5182 669.776 52.4409C669.539 52.3635 669.305 52.2765 669.073 52.1799C668.846 52.0784 668.643 51.9527 668.464 51.8029C668.285 51.653 668.14 51.4694 668.029 51.2519C667.923 51.0295 667.869 50.7613 667.869 50.4471C667.869 50.1668 667.927 49.8985 668.043 49.6424C668.159 49.3814 668.329 49.1542 668.551 48.9609C668.773 48.7627 669.046 48.6056 669.37 48.4896C669.694 48.3736 670.064 48.3156 670.479 48.3156C670.963 48.3156 671.395 48.393 671.777 48.5476C672.164 48.6975 672.497 48.9053 672.778 49.1711L672.488 49.6424ZM681.956 50.4181C682.362 50.4181 682.72 50.3698 683.029 50.2731C683.343 50.1716 683.604 50.0315 683.812 49.8526C684.025 49.669 684.184 49.4515 684.29 49.2001C684.397 48.9488 684.45 48.6709 684.45 48.3664C684.45 47.7477 684.247 47.2813 683.841 46.9671C683.435 46.653 682.826 46.4959 682.014 46.4959H680.477V50.4181H681.956ZM686.755 55.7759H685.508C685.252 55.7759 685.064 55.6768 684.943 55.4786L682.246 51.7666C682.164 51.6506 682.074 51.5685 681.978 51.5201C681.886 51.467 681.741 51.4404 681.543 51.4404H680.477V55.7759H679.078V45.3866H682.014C682.671 45.3866 683.239 45.4543 683.718 45.5896C684.196 45.7201 684.59 45.911 684.899 46.1624C685.214 46.4137 685.446 46.7182 685.595 47.0759C685.745 47.4287 685.82 47.825 685.82 48.2649C685.82 48.6322 685.762 48.9754 685.646 49.2944C685.53 49.6134 685.361 49.901 685.139 50.1571C684.921 50.4085 684.653 50.6235 684.334 50.8024C684.02 50.9812 683.662 51.1165 683.261 51.2084C683.44 51.3099 683.594 51.4573 683.725 51.6506L686.755 55.7759ZM692.602 51.3026C692.602 51.003 692.559 50.7299 692.472 50.4834C692.389 50.232 692.266 50.017 692.102 49.8381C691.942 49.6545 691.747 49.5143 691.515 49.4176C691.283 49.3161 691.019 49.2654 690.724 49.2654C690.106 49.2654 689.615 49.4466 689.253 49.8091C688.895 50.1668 688.673 50.6646 688.586 51.3026H692.602ZM693.646 54.7464C693.487 54.9397 693.296 55.1089 693.073 55.2539C692.851 55.394 692.612 55.51 692.356 55.6019C692.104 55.6937 691.843 55.7614 691.573 55.8049C691.302 55.8532 691.034 55.8774 690.768 55.8774C690.26 55.8774 689.792 55.7928 689.361 55.6236C688.936 55.4496 688.566 55.1983 688.252 54.8696C687.943 54.5361 687.701 54.1253 687.527 53.6371C687.353 53.149 687.266 52.5883 687.266 51.9551C687.266 51.4428 687.343 50.9643 687.498 50.5196C687.658 50.075 687.885 49.6907 688.18 49.3669C688.474 49.0382 688.835 48.782 689.26 48.5984C689.685 48.4099 690.164 48.3156 690.695 48.3156C691.135 48.3156 691.541 48.3905 691.913 48.5404C692.29 48.6854 692.614 48.898 692.885 49.1784C693.16 49.4539 693.375 49.797 693.53 50.2079C693.685 50.6139 693.762 51.0779 693.762 51.5999C693.762 51.8029 693.74 51.9382 693.697 52.0059C693.653 52.0735 693.571 52.1074 693.45 52.1074H688.542C688.557 52.5714 688.619 52.975 688.731 53.3181C688.847 53.6613 689.006 53.9489 689.209 54.1809C689.412 54.408 689.654 54.5796 689.934 54.6956C690.214 54.8068 690.529 54.8624 690.877 54.8624C691.2 54.8624 691.478 54.8261 691.71 54.7536C691.947 54.6763 692.15 54.5941 692.319 54.5071C692.489 54.4201 692.629 54.3404 692.74 54.2679C692.856 54.1905 692.955 54.1519 693.037 54.1519C693.143 54.1519 693.226 54.193 693.284 54.2751L693.646 54.7464ZM699.915 49.6424C699.857 49.7487 699.767 49.8019 699.647 49.8019C699.574 49.8019 699.492 49.7753 699.4 49.7221C699.308 49.669 699.195 49.611 699.059 49.5481C698.929 49.4805 698.772 49.42 698.588 49.3669C698.404 49.3089 698.187 49.2799 697.936 49.2799C697.718 49.2799 697.522 49.3089 697.348 49.3669C697.174 49.42 697.024 49.495 696.899 49.5916C696.778 49.6883 696.684 49.8019 696.616 49.9324C696.553 50.058 696.522 50.1958 696.522 50.3456C696.522 50.5341 696.575 50.6912 696.681 50.8169C696.792 50.9425 696.937 51.0513 697.116 51.1431C697.295 51.235 697.498 51.3171 697.725 51.3896C697.952 51.4573 698.184 51.5322 698.421 51.6144C698.663 51.6917 698.897 51.7787 699.125 51.8754C699.352 51.972 699.555 52.0929 699.734 52.2379C699.912 52.3829 700.055 52.5617 700.161 52.7744C700.272 52.9822 700.328 53.2335 700.328 53.5284C700.328 53.8667 700.268 54.1809 700.147 54.4709C700.026 54.756 699.847 55.005 699.61 55.2176C699.373 55.4255 699.083 55.5898 698.74 55.7106C698.397 55.8315 698.001 55.8919 697.551 55.8919C697.039 55.8919 696.575 55.8097 696.159 55.6454C695.744 55.4762 695.391 55.2611 695.101 55.0001L695.405 54.5071C695.444 54.4443 695.49 54.396 695.543 54.3621C695.596 54.3283 695.664 54.3114 695.746 54.3114C695.833 54.3114 695.925 54.3452 696.022 54.4129C696.118 54.4805 696.234 54.5555 696.37 54.6376C696.51 54.7198 696.679 54.7947 696.877 54.8624C697.075 54.93 697.322 54.9639 697.617 54.9639C697.868 54.9639 698.088 54.9325 698.276 54.8696C698.465 54.802 698.622 54.7125 698.748 54.6014C698.873 54.4902 698.965 54.3621 699.023 54.2171C699.086 54.0721 699.117 53.9175 699.117 53.7531C699.117 53.5501 699.062 53.3834 698.951 53.2529C698.844 53.1175 698.702 53.004 698.523 52.9121C698.344 52.8155 698.139 52.7333 697.907 52.6656C697.679 52.5931 697.445 52.5182 697.203 52.4409C696.966 52.3635 696.732 52.2765 696.5 52.1799C696.273 52.0784 696.07 51.9527 695.891 51.8029C695.712 51.653 695.567 51.4694 695.456 51.2519C695.35 51.0295 695.297 50.7613 695.297 50.4471C695.297 50.1668 695.355 49.8985 695.471 49.6424C695.587 49.3814 695.756 49.1542 695.978 48.9609C696.2 48.7627 696.473 48.6056 696.797 48.4896C697.121 48.3736 697.491 48.3156 697.907 48.3156C698.39 48.3156 698.822 48.393 699.204 48.5476C699.591 48.6975 699.924 48.9053 700.205 49.1711L699.915 49.6424ZM707.116 51.3026C707.116 51.003 707.072 50.7299 706.985 50.4834C706.903 50.232 706.78 50.017 706.615 49.8381C706.456 49.6545 706.26 49.5143 706.028 49.4176C705.796 49.3161 705.533 49.2654 705.238 49.2654C704.619 49.2654 704.129 49.4466 703.766 49.8091C703.409 50.1668 703.186 50.6646 703.099 51.3026H707.116ZM708.16 54.7464C708 54.9397 707.809 55.1089 707.587 55.2539C707.365 55.394 707.125 55.51 706.869 55.6019C706.618 55.6937 706.357 55.7614 706.086 55.8049C705.816 55.8532 705.547 55.8774 705.281 55.8774C704.774 55.8774 704.305 55.7928 703.875 55.6236C703.45 55.4496 703.08 55.1983 702.766 54.8696C702.456 54.5361 702.215 54.1253 702.041 53.6371C701.867 53.149 701.78 52.5883 701.78 51.9551C701.78 51.4428 701.857 50.9643 702.012 50.5196C702.171 50.075 702.398 49.6907 702.693 49.3669C702.988 49.0382 703.348 48.782 703.773 48.5984C704.199 48.4099 704.677 48.3156 705.209 48.3156C705.649 48.3156 706.055 48.3905 706.427 48.5404C706.804 48.6854 707.128 48.898 707.398 49.1784C707.674 49.4539 707.889 49.797 708.044 50.2079C708.198 50.6139 708.276 51.0779 708.276 51.5999C708.276 51.8029 708.254 51.9382 708.21 52.0059C708.167 52.0735 708.085 52.1074 707.964 52.1074H703.056C703.07 52.5714 703.133 52.975 703.244 53.3181C703.36 53.6613 703.52 53.9489 703.723 54.1809C703.926 54.408 704.167 54.5796 704.448 54.6956C704.728 54.8068 705.042 54.8624 705.39 54.8624C705.714 54.8624 705.992 54.8261 706.224 54.7536C706.461 54.6763 706.664 54.5941 706.833 54.5071C707.002 54.4201 707.142 54.3404 707.253 54.2679C707.369 54.1905 707.469 54.1519 707.551 54.1519C707.657 54.1519 707.739 54.193 707.797 54.2751L708.16 54.7464ZM711.376 49.9034C711.608 49.4007 711.893 49.0092 712.232 48.7289C712.57 48.4437 712.983 48.3011 713.471 48.3011C713.626 48.3011 713.773 48.318 713.914 48.3519C714.059 48.3857 714.187 48.4389 714.298 48.5114L714.204 49.4756C714.175 49.5965 714.102 49.6569 713.986 49.6569C713.918 49.6569 713.819 49.6424 713.689 49.6134C713.558 49.5844 713.411 49.5699 713.247 49.5699C713.015 49.5699 712.807 49.6037 712.623 49.6714C712.444 49.739 712.282 49.8405 712.137 49.9759C711.997 50.1064 711.869 50.2707 711.753 50.4689C711.642 50.6622 711.54 50.8845 711.449 51.1359V55.7759H710.151V48.4316H710.89C711.031 48.4316 711.127 48.4582 711.18 48.5114C711.234 48.5645 711.27 48.6564 711.289 48.7869L711.376 49.9034ZM722.016 48.4316L719.021 55.7759H717.861L714.867 48.4316H715.918C716.025 48.4316 716.112 48.4582 716.179 48.5114C716.247 48.5645 716.293 48.6274 716.317 48.6999L718.18 53.4269C718.238 53.6057 718.289 53.7797 718.333 53.9489C718.376 54.118 718.417 54.2872 718.456 54.4564C718.495 54.2872 718.536 54.118 718.579 53.9489C718.623 53.7797 718.676 53.6057 718.739 53.4269L720.624 48.6999C720.653 48.6225 720.701 48.5597 720.769 48.5114C720.836 48.4582 720.916 48.4316 721.008 48.4316H722.016ZM728.206 51.3026C728.206 51.003 728.163 50.7299 728.076 50.4834C727.994 50.232 727.871 50.017 727.706 49.8381C727.547 49.6545 727.351 49.5143 727.119 49.4176C726.887 49.3161 726.624 49.2654 726.329 49.2654C725.71 49.2654 725.219 49.4466 724.857 49.8091C724.499 50.1668 724.277 50.6646 724.19 51.3026H728.206ZM729.25 54.7464C729.091 54.9397 728.9 55.1089 728.678 55.2539C728.455 55.394 728.216 55.51 727.96 55.6019C727.709 55.6937 727.448 55.7614 727.177 55.8049C726.906 55.8532 726.638 55.8774 726.372 55.8774C725.865 55.8774 725.396 55.7928 724.966 55.6236C724.54 55.4496 724.171 55.1983 723.856 54.8696C723.547 54.5361 723.305 54.1253 723.131 53.6371C722.957 53.149 722.87 52.5883 722.87 51.9551C722.87 51.4428 722.948 50.9643 723.102 50.5196C723.262 50.075 723.489 49.6907 723.784 49.3669C724.079 49.0382 724.439 48.782 724.864 48.5984C725.29 48.4099 725.768 48.3156 726.3 48.3156C726.74 48.3156 727.146 48.3905 727.518 48.5404C727.895 48.6854 728.219 48.898 728.489 49.1784C728.765 49.4539 728.98 49.797 729.134 50.2079C729.289 50.6139 729.366 51.0779 729.366 51.5999C729.366 51.8029 729.345 51.9382 729.301 52.0059C729.258 52.0735 729.176 52.1074 729.055 52.1074H724.146C724.161 52.5714 724.224 52.975 724.335 53.3181C724.451 53.6613 724.61 53.9489 724.813 54.1809C725.016 54.408 725.258 54.5796 725.538 54.6956C725.819 54.8068 726.133 54.8624 726.481 54.8624C726.805 54.8624 727.083 54.8261 727.315 54.7536C727.552 54.6763 727.755 54.5941 727.924 54.5071C728.093 54.4201 728.233 54.3404 728.344 54.2679C728.46 54.1905 728.559 54.1519 728.641 54.1519C728.748 54.1519 728.83 54.193 728.888 54.2751L729.25 54.7464ZM736.027 50.1789C735.785 49.855 735.524 49.6303 735.244 49.5046C734.963 49.3741 734.649 49.3089 734.301 49.3089C733.62 49.3089 733.095 49.553 732.728 50.0411C732.36 50.5293 732.177 51.2253 732.177 52.1291C732.177 52.6076 732.218 53.0185 732.3 53.3616C732.382 53.7 732.503 53.9803 732.663 54.2026C732.822 54.4201 733.018 54.5796 733.25 54.6811C733.482 54.7826 733.745 54.8334 734.04 54.8334C734.465 54.8334 734.835 54.7367 735.149 54.5434C735.468 54.35 735.761 54.077 736.027 53.7241V50.1789ZM737.317 45.0966V55.7759H736.549C736.365 55.7759 736.249 55.6865 736.201 55.5076L736.085 54.6159C735.77 54.9929 735.413 55.2974 735.012 55.5294C734.61 55.7614 734.146 55.8774 733.62 55.8774C733.199 55.8774 732.817 55.7976 732.474 55.6381C732.131 55.4738 731.838 55.2345 731.597 54.9204C731.355 54.6062 731.169 54.2147 731.039 53.7459C730.908 53.277 730.843 52.7381 730.843 52.1291C730.843 51.5878 730.915 51.0851 731.06 50.6211C731.205 50.1523 731.413 49.7463 731.684 49.4031C731.954 49.06 732.286 48.7917 732.677 48.5984C733.073 48.4002 733.518 48.3011 734.011 48.3011C734.461 48.3011 734.845 48.3785 735.164 48.5331C735.488 48.683 735.775 48.8932 736.027 49.1639V45.0966H737.317ZM739.428 54.9784C739.428 54.8527 739.45 54.7343 739.493 54.6231C739.541 54.512 739.604 54.4153 739.682 54.3331C739.764 54.251 739.86 54.1857 739.972 54.1374C740.083 54.089 740.201 54.0649 740.327 54.0649C740.453 54.0649 740.571 54.089 740.682 54.1374C740.793 54.1857 740.89 54.251 740.972 54.3331C741.054 54.4153 741.12 54.512 741.168 54.6231C741.216 54.7343 741.24 54.8527 741.24 54.9784C741.24 55.1089 741.216 55.2297 741.168 55.3409C741.12 55.4472 741.054 55.5415 740.972 55.6236C740.89 55.7058 740.793 55.7686 740.682 55.8121C740.571 55.8605 740.453 55.8846 740.327 55.8846C740.201 55.8846 740.083 55.8605 739.972 55.8121C739.86 55.7686 739.764 55.7058 739.682 55.6236C739.604 55.5415 739.541 55.4472 739.493 55.3409C739.45 55.2297 739.428 55.1089 739.428 54.9784Z" fill="#6A6A6A"/>
</svg>
