<svg width="497" height="37" viewBox="0 0 497 37" fill="none" xmlns="http://www.w3.org/2000/svg">
<path d="M5.69031 5.36V13.92H16.5303V18.22H5.69031V30H0.290313V1.08H18.5303V5.36H5.69031ZM25.225 13.04C25.865 11.8133 26.625 10.8533 27.505 10.16C28.385 9.45333 29.425 9.1 30.625 9.1C31.5717 9.1 32.3317 9.30667 32.905 9.72L32.585 13.42C32.5183 13.66 32.4183 13.8333 32.285 13.94C32.165 14.0333 31.9983 14.08 31.785 14.08C31.585 14.08 31.285 14.0467 30.885 13.98C30.4983 13.9133 30.1183 13.88 29.745 13.88C29.1983 13.88 28.7117 13.96 28.285 14.12C27.8583 14.28 27.4717 14.5133 27.125 14.82C26.7917 15.1133 26.4917 15.4733 26.225 15.9C25.9717 16.3267 25.7317 16.8133 25.505 17.36V30H20.565V9.48H23.465C23.9717 9.48 24.325 9.57333 24.525 9.76C24.725 9.93333 24.8583 10.2533 24.925 10.72L25.225 13.04ZM48.1209 17.38C48.1209 16.74 48.0276 16.14 47.8409 15.58C47.6676 15.0067 47.4009 14.5067 47.0409 14.08C46.6809 13.6533 46.2209 13.32 45.6609 13.08C45.1143 12.8267 44.4743 12.7 43.7409 12.7C42.3143 12.7 41.1876 13.1067 40.3609 13.92C39.5476 14.7333 39.0276 15.8867 38.8009 17.38H48.1209ZM38.7009 20.36C38.7809 21.4133 38.9676 22.3267 39.2609 23.1C39.5543 23.86 39.9409 24.4933 40.4209 25C40.9009 25.4933 41.4676 25.8667 42.1209 26.12C42.7876 26.36 43.5209 26.48 44.3209 26.48C45.1209 26.48 45.8076 26.3867 46.3809 26.2C46.9676 26.0133 47.4743 25.8067 47.9009 25.58C48.3409 25.3533 48.7209 25.1467 49.0409 24.96C49.3743 24.7733 49.6943 24.68 50.0009 24.68C50.4143 24.68 50.7209 24.8333 50.9209 25.14L52.3409 26.94C51.7943 27.58 51.1809 28.12 50.5009 28.56C49.8209 28.9867 49.1076 29.3333 48.3609 29.6C47.6276 29.8533 46.8743 30.0333 46.1009 30.14C45.3409 30.2467 44.6009 30.3 43.8809 30.3C42.4543 30.3 41.1276 30.0667 39.9009 29.6C38.6743 29.12 37.6076 28.42 36.7009 27.5C35.7943 26.5667 35.0809 25.42 34.5609 24.06C34.0409 22.6867 33.7809 21.1 33.7809 19.3C33.7809 17.9 34.0076 16.5867 34.4609 15.36C34.9143 14.12 35.5609 13.0467 36.4009 12.14C37.2543 11.22 38.2876 10.4933 39.5009 9.96C40.7276 9.42667 42.1076 9.16 43.6409 9.16C44.9343 9.16 46.1276 9.36667 47.2209 9.78C48.3143 10.1933 49.2543 10.8 50.0409 11.6C50.8276 12.3867 51.4409 13.36 51.8809 14.52C52.3343 15.6667 52.5609 16.98 52.5609 18.46C52.5609 19.2067 52.4809 19.7133 52.3209 19.98C52.1609 20.2333 51.8543 20.36 51.4009 20.36H38.7009ZM69.1481 14.72C68.6015 14.04 67.9948 13.56 67.3281 13.28C66.6615 13 65.9481 12.86 65.1881 12.86C64.4415 12.86 63.7681 13 63.1681 13.28C62.5681 13.56 62.0548 13.9867 61.6281 14.56C61.2015 15.12 60.8748 15.84 60.6481 16.72C60.4215 17.5867 60.3081 18.6133 60.3081 19.8C60.3081 21 60.4015 22.02 60.5881 22.86C60.7881 23.6867 61.0681 24.3667 61.4281 24.9C61.7881 25.42 62.2281 25.8 62.7481 26.04C63.2681 26.2667 63.8481 26.38 64.4881 26.38C65.5148 26.38 66.3881 26.1667 67.1081 25.74C67.8281 25.3133 68.5081 24.7067 69.1481 23.92V14.72ZM74.0881 9.48V36.7H69.1481V27.4C68.3348 28.2667 67.4148 28.9667 66.3881 29.5C65.3615 30.0333 64.1681 30.3 62.8081 30.3C61.6881 30.3 60.6615 30.0667 59.7281 29.6C58.7948 29.1333 57.9881 28.46 57.3081 27.58C56.6415 26.6867 56.1215 25.5867 55.7481 24.28C55.3881 22.9733 55.2081 21.48 55.2081 19.8C55.2081 18.28 55.4148 16.8667 55.8281 15.56C56.2415 14.2533 56.8348 13.12 57.6081 12.16C58.3815 11.2 59.3081 10.4533 60.3881 9.92C61.4681 9.37333 62.6815 9.1 64.0281 9.1C65.3081 9.1 66.3815 9.32 67.2481 9.76C68.1148 10.2 68.8881 10.7933 69.5681 11.54L69.8281 10.38C70.0015 9.78 70.4148 9.48 71.0681 9.48H74.0881ZM96.6434 9.48V30H93.6234C92.9701 30 92.5568 29.7 92.3834 29.1L92.0434 27.46C91.2034 28.3133 90.2768 29.0067 89.2634 29.54C88.2501 30.06 87.0568 30.32 85.6834 30.32C84.5634 30.32 83.5701 30.1333 82.7034 29.76C81.8501 29.3733 81.1301 28.8333 80.5434 28.14C79.9568 27.4467 79.5101 26.6267 79.2034 25.68C78.9101 24.72 78.7634 23.6667 78.7634 22.52V9.48H83.7034V22.52C83.7034 23.7733 83.9901 24.7467 84.5634 25.44C85.1501 26.12 86.0234 26.46 87.1834 26.46C88.0368 26.46 88.8368 26.2733 89.5834 25.9C90.3301 25.5133 91.0368 24.9867 91.7034 24.32V9.48H96.6434ZM114.762 17.38C114.762 16.74 114.668 16.14 114.482 15.58C114.308 15.0067 114.042 14.5067 113.682 14.08C113.322 13.6533 112.862 13.32 112.302 13.08C111.755 12.8267 111.115 12.7 110.382 12.7C108.955 12.7 107.828 13.1067 107.002 13.92C106.188 14.7333 105.668 15.8867 105.442 17.38H114.762ZM105.342 20.36C105.422 21.4133 105.608 22.3267 105.902 23.1C106.195 23.86 106.582 24.4933 107.062 25C107.542 25.4933 108.108 25.8667 108.762 26.12C109.428 26.36 110.162 26.48 110.962 26.48C111.762 26.48 112.448 26.3867 113.022 26.2C113.608 26.0133 114.115 25.8067 114.542 25.58C114.982 25.3533 115.362 25.1467 115.682 24.96C116.015 24.7733 116.335 24.68 116.642 24.68C117.055 24.68 117.362 24.8333 117.562 25.14L118.982 26.94C118.435 27.58 117.822 28.12 117.142 28.56C116.462 28.9867 115.748 29.3333 115.002 29.6C114.268 29.8533 113.515 30.0333 112.742 30.14C111.982 30.2467 111.242 30.3 110.522 30.3C109.095 30.3 107.768 30.0667 106.542 29.6C105.315 29.12 104.248 28.42 103.342 27.5C102.435 26.5667 101.722 25.42 101.202 24.06C100.682 22.6867 100.422 21.1 100.422 19.3C100.422 17.9 100.648 16.5867 101.102 15.36C101.555 14.12 102.202 13.0467 103.042 12.14C103.895 11.22 104.928 10.4933 106.142 9.96C107.368 9.42667 108.748 9.16 110.282 9.16C111.575 9.16 112.768 9.36667 113.862 9.78C114.955 10.1933 115.895 10.8 116.682 11.6C117.468 12.3867 118.082 13.36 118.522 14.52C118.975 15.6667 119.202 16.98 119.202 18.46C119.202 19.2067 119.122 19.7133 118.962 19.98C118.802 20.2333 118.495 20.36 118.042 20.36H105.342ZM127.529 12C127.942 11.5867 128.375 11.2067 128.829 10.86C129.295 10.5 129.782 10.2 130.289 9.96C130.809 9.70667 131.362 9.51333 131.949 9.38C132.535 9.23333 133.175 9.16 133.869 9.16C134.989 9.16 135.982 9.35333 136.849 9.74C137.715 10.1133 138.435 10.6467 139.009 11.34C139.595 12.02 140.035 12.84 140.329 13.8C140.635 14.7467 140.789 15.7933 140.789 16.94V30H135.849V16.94C135.849 15.6867 135.562 14.72 134.989 14.04C134.415 13.3467 133.542 13 132.369 13C131.515 13 130.715 13.1933 129.969 13.58C129.222 13.9667 128.515 14.4933 127.849 15.16V30H122.909V9.48H125.929C126.569 9.48 126.989 9.78 127.189 10.38L127.529 12ZM152.053 30.32C150.267 30.32 148.893 29.82 147.933 28.82C146.987 27.8067 146.513 26.4133 146.513 24.64V13.18H144.413C144.147 13.18 143.92 13.0933 143.733 12.92C143.547 12.7467 143.453 12.4867 143.453 12.14V10.18L146.753 9.64L147.793 4.04C147.86 3.77333 147.987 3.56666 148.173 3.42C148.36 3.27333 148.6 3.2 148.893 3.2H151.453V9.66H156.933V13.18H151.453V24.3C151.453 24.94 151.607 25.44 151.913 25.8C152.233 26.16 152.667 26.34 153.213 26.34C153.52 26.34 153.773 26.3067 153.973 26.24C154.187 26.16 154.367 26.08 154.513 26C154.673 25.92 154.813 25.8467 154.933 25.78C155.053 25.7 155.173 25.66 155.293 25.66C155.44 25.66 155.56 25.7 155.653 25.78C155.747 25.8467 155.847 25.9533 155.953 26.1L157.433 28.5C156.713 29.1 155.887 29.5533 154.953 29.86C154.02 30.1667 153.053 30.32 152.053 30.32ZM165.096 0.279999V30H160.156V0.279999H165.096ZM188.658 9.48L177.478 35.64C177.331 35.9867 177.138 36.2467 176.898 36.42C176.671 36.6067 176.318 36.7 175.838 36.7H172.158L175.998 28.46L167.698 9.48H172.038C172.425 9.48 172.725 9.57333 172.938 9.76C173.165 9.94667 173.331 10.16 173.438 10.4L177.798 21.04C177.945 21.4 178.065 21.76 178.158 22.12C178.265 22.48 178.365 22.8467 178.458 23.22C178.578 22.8467 178.698 22.48 178.818 22.12C178.938 21.7467 179.071 21.38 179.218 21.02L183.338 10.4C183.445 10.1333 183.618 9.91333 183.858 9.74C184.111 9.56667 184.391 9.48 184.698 9.48H188.658ZM214.555 19.08L211.035 9.46C210.861 9.03333 210.681 8.52667 210.495 7.94C210.308 7.35333 210.121 6.72 209.935 6.04C209.761 6.72 209.581 7.36 209.395 7.96C209.208 8.54667 209.028 9.06 208.855 9.5L205.355 19.08H214.555ZM224.055 30H219.895C219.428 30 219.048 29.8867 218.755 29.66C218.461 29.42 218.241 29.1267 218.095 28.78L215.935 22.88H203.955L201.795 28.78C201.688 29.0867 201.481 29.3667 201.175 29.62C200.868 29.8733 200.488 30 200.035 30H195.835L207.215 1.08H212.695L224.055 30ZM238.788 13.48C238.655 13.6933 238.515 13.8467 238.368 13.94C238.221 14.02 238.035 14.06 237.808 14.06C237.568 14.06 237.308 13.9933 237.028 13.86C236.761 13.7267 236.448 13.58 236.088 13.42C235.728 13.2467 235.315 13.0933 234.848 12.96C234.395 12.8267 233.855 12.76 233.228 12.76C232.255 12.76 231.488 12.9667 230.928 13.38C230.381 13.7933 230.108 14.3333 230.108 15C230.108 15.44 230.248 15.8133 230.528 16.12C230.821 16.4133 231.201 16.6733 231.668 16.9C232.148 17.1267 232.688 17.3333 233.288 17.52C233.888 17.6933 234.495 17.8867 235.108 18.1C235.735 18.3133 236.348 18.56 236.948 18.84C237.548 19.1067 238.081 19.4533 238.548 19.88C239.028 20.2933 239.408 20.7933 239.688 21.38C239.981 21.9667 240.128 22.6733 240.128 23.5C240.128 24.4867 239.948 25.4 239.588 26.24C239.241 27.0667 238.721 27.7867 238.028 28.4C237.335 29 236.475 29.4733 235.448 29.82C234.435 30.1533 233.261 30.32 231.928 30.32C231.221 30.32 230.528 30.2533 229.848 30.12C229.181 30 228.535 29.8267 227.908 29.6C227.295 29.3733 226.721 29.1067 226.188 28.8C225.668 28.4933 225.208 28.16 224.808 27.8L225.948 25.92C226.095 25.6933 226.268 25.52 226.468 25.4C226.668 25.28 226.921 25.22 227.228 25.22C227.535 25.22 227.821 25.3067 228.088 25.48C228.368 25.6533 228.688 25.84 229.048 26.04C229.408 26.24 229.828 26.4267 230.308 26.6C230.801 26.7733 231.421 26.86 232.168 26.86C232.755 26.86 233.255 26.7933 233.668 26.66C234.095 26.5133 234.441 26.3267 234.708 26.1C234.988 25.8733 235.188 25.6133 235.308 25.32C235.441 25.0133 235.508 24.7 235.508 24.38C235.508 23.9 235.361 23.5067 235.068 23.2C234.788 22.8933 234.408 22.6267 233.928 22.4C233.461 22.1733 232.921 21.9733 232.308 21.8C231.708 21.6133 231.088 21.4133 230.448 21.2C229.821 20.9867 229.201 20.74 228.588 20.46C227.988 20.1667 227.448 19.8 226.968 19.36C226.501 18.92 226.121 18.38 225.828 17.74C225.548 17.1 225.408 16.3267 225.408 15.42C225.408 14.58 225.575 13.78 225.908 13.02C226.241 12.26 226.728 11.6 227.368 11.04C228.021 10.4667 228.828 10.0133 229.788 9.68C230.761 9.33333 231.881 9.16 233.148 9.16C234.561 9.16 235.848 9.39333 237.008 9.86C238.168 10.3267 239.135 10.94 239.908 11.7L238.788 13.48ZM248.786 0.279999V17.3H249.706C250.04 17.3 250.3 17.26 250.486 17.18C250.686 17.0867 250.886 16.9067 251.086 16.64L256.186 10.34C256.4 10.06 256.633 9.84667 256.886 9.7C257.153 9.55333 257.493 9.48 257.906 9.48H262.426L256.046 17.1C255.593 17.7 255.1 18.16 254.566 18.48C254.846 18.68 255.093 18.9133 255.306 19.18C255.533 19.4467 255.746 19.7333 255.946 20.04L262.786 30H258.326C257.94 30 257.606 29.94 257.326 29.82C257.046 29.6867 256.813 29.4533 256.626 29.12L251.386 21.34C251.2 21.0333 251.006 20.8333 250.806 20.74C250.606 20.6467 250.306 20.6 249.906 20.6H248.786V30H243.846V0.279999H248.786ZM277.379 17.38C277.379 16.74 277.285 16.14 277.099 15.58C276.925 15.0067 276.659 14.5067 276.299 14.08C275.939 13.6533 275.479 13.32 274.919 13.08C274.372 12.8267 273.732 12.7 272.999 12.7C271.572 12.7 270.445 13.1067 269.619 13.92C268.805 14.7333 268.285 15.8867 268.059 17.38H277.379ZM267.959 20.36C268.039 21.4133 268.225 22.3267 268.519 23.1C268.812 23.86 269.199 24.4933 269.679 25C270.159 25.4933 270.725 25.8667 271.379 26.12C272.045 26.36 272.779 26.48 273.579 26.48C274.379 26.48 275.065 26.3867 275.639 26.2C276.225 26.0133 276.732 25.8067 277.159 25.58C277.599 25.3533 277.979 25.1467 278.299 24.96C278.632 24.7733 278.952 24.68 279.259 24.68C279.672 24.68 279.979 24.8333 280.179 25.14L281.599 26.94C281.052 27.58 280.439 28.12 279.759 28.56C279.079 28.9867 278.365 29.3333 277.619 29.6C276.885 29.8533 276.132 30.0333 275.359 30.14C274.599 30.2467 273.859 30.3 273.139 30.3C271.712 30.3 270.385 30.0667 269.159 29.6C267.932 29.12 266.865 28.42 265.959 27.5C265.052 26.5667 264.339 25.42 263.819 24.06C263.299 22.6867 263.039 21.1 263.039 19.3C263.039 17.9 263.265 16.5867 263.719 15.36C264.172 14.12 264.819 13.0467 265.659 12.14C266.512 11.22 267.545 10.4933 268.759 9.96C269.985 9.42667 271.365 9.16 272.899 9.16C274.192 9.16 275.385 9.36667 276.479 9.78C277.572 10.1933 278.512 10.8 279.299 11.6C280.085 12.3867 280.699 13.36 281.139 14.52C281.592 15.6667 281.819 16.98 281.819 18.46C281.819 19.2067 281.739 19.7133 281.579 19.98C281.419 20.2333 281.112 20.36 280.659 20.36H267.959ZM298.406 14.72C297.846 14.04 297.233 13.56 296.566 13.28C295.913 13 295.206 12.86 294.446 12.86C293.699 12.86 293.026 13 292.426 13.28C291.826 13.56 291.313 13.9867 290.886 14.56C290.459 15.12 290.133 15.84 289.906 16.72C289.679 17.5867 289.566 18.6133 289.566 19.8C289.566 21 289.659 22.02 289.846 22.86C290.046 23.6867 290.326 24.3667 290.686 24.9C291.046 25.42 291.486 25.8 292.006 26.04C292.526 26.2667 293.106 26.38 293.746 26.38C294.773 26.38 295.646 26.1667 296.366 25.74C297.086 25.3133 297.766 24.7067 298.406 23.92V14.72ZM303.346 0.279999V30H300.326C299.673 30 299.259 29.7 299.086 29.1L298.666 27.12C297.839 28.0667 296.886 28.8333 295.806 29.42C294.739 30.0067 293.493 30.3 292.066 30.3C290.946 30.3 289.919 30.0667 288.986 29.6C288.053 29.1333 287.246 28.46 286.566 27.58C285.899 26.6867 285.379 25.5867 285.006 24.28C284.646 22.9733 284.466 21.48 284.466 19.8C284.466 18.28 284.673 16.8667 285.086 15.56C285.499 14.2533 286.093 13.12 286.866 12.16C287.639 11.2 288.566 10.4533 289.646 9.92C290.726 9.37333 291.939 9.1 293.286 9.1C294.433 9.1 295.413 9.28 296.226 9.64C297.039 10 297.766 10.4867 298.406 11.1V0.279999H303.346ZM322.528 15.54C322.528 17.1267 322.741 18.5533 323.168 19.82C323.594 21.0733 324.201 22.14 324.988 23.02C325.788 23.8867 326.748 24.5533 327.868 25.02C329.001 25.4867 330.274 25.72 331.688 25.72C333.101 25.72 334.368 25.4867 335.488 25.02C336.621 24.5533 337.581 23.8867 338.368 23.02C339.154 22.14 339.761 21.0733 340.188 19.82C340.614 18.5533 340.828 17.1267 340.828 15.54C340.828 13.9533 340.614 12.5333 340.188 11.28C339.761 10.0133 339.154 8.94 338.368 8.06C337.581 7.18 336.621 6.50666 335.488 6.04C334.368 5.57333 333.101 5.34 331.688 5.34C330.274 5.34 329.001 5.57333 327.868 6.04C326.748 6.50666 325.788 7.18 324.988 8.06C324.201 8.94 323.594 10.0133 323.168 11.28C322.741 12.5333 322.528 13.9533 322.528 15.54ZM347.828 35.66H343.388C342.748 35.66 342.168 35.5733 341.648 35.4C341.141 35.2267 340.674 34.9067 340.248 34.44L336.008 29.76C335.328 29.9467 334.628 30.0867 333.908 30.18C333.201 30.2733 332.461 30.32 331.688 30.32C329.501 30.32 327.508 29.9533 325.708 29.22C323.908 28.4733 322.361 27.44 321.068 26.12C319.788 24.8 318.794 23.24 318.088 21.44C317.381 19.6267 317.028 17.66 317.028 15.54C317.028 13.42 317.381 11.46 318.088 9.66C318.794 7.84667 319.788 6.28 321.068 4.96C322.361 3.64 323.908 2.61333 325.708 1.88C327.508 1.13333 329.501 0.76 331.688 0.76C333.154 0.76 334.534 0.933332 335.828 1.28C337.121 1.61333 338.308 2.09333 339.388 2.72C340.468 3.33333 341.434 4.08667 342.288 4.98C343.154 5.86 343.888 6.84667 344.488 7.94C345.088 9.03333 345.541 10.22 345.848 11.5C346.168 12.78 346.328 14.1267 346.328 15.54C346.328 16.8333 346.194 18.0733 345.928 19.26C345.661 20.4333 345.274 21.5333 344.768 22.56C344.274 23.5867 343.668 24.5333 342.948 25.4C342.228 26.2533 341.408 27.0067 340.488 27.66L347.828 35.66ZM367.659 9.48V30H364.639C363.986 30 363.572 29.7 363.399 29.1L363.059 27.46C362.219 28.3133 361.292 29.0067 360.279 29.54C359.266 30.06 358.072 30.32 356.699 30.32C355.579 30.32 354.586 30.1333 353.719 29.76C352.866 29.3733 352.146 28.8333 351.559 28.14C350.972 27.4467 350.526 26.6267 350.219 25.68C349.926 24.72 349.779 23.6667 349.779 22.52V9.48H354.719V22.52C354.719 23.7733 355.006 24.7467 355.579 25.44C356.166 26.12 357.039 26.46 358.199 26.46C359.052 26.46 359.852 26.2733 360.599 25.9C361.346 25.5133 362.052 24.9867 362.719 24.32V9.48H367.659ZM385.777 17.38C385.777 16.74 385.684 16.14 385.497 15.58C385.324 15.0067 385.057 14.5067 384.697 14.08C384.337 13.6533 383.877 13.32 383.317 13.08C382.771 12.8267 382.131 12.7 381.397 12.7C379.971 12.7 378.844 13.1067 378.017 13.92C377.204 14.7333 376.684 15.8867 376.457 17.38H385.777ZM376.357 20.36C376.437 21.4133 376.624 22.3267 376.917 23.1C377.211 23.86 377.597 24.4933 378.077 25C378.557 25.4933 379.124 25.8667 379.777 26.12C380.444 26.36 381.177 26.48 381.977 26.48C382.777 26.48 383.464 26.3867 384.037 26.2C384.624 26.0133 385.131 25.8067 385.557 25.58C385.997 25.3533 386.377 25.1467 386.697 24.96C387.031 24.7733 387.351 24.68 387.657 24.68C388.071 24.68 388.377 24.8333 388.577 25.14L389.997 26.94C389.451 27.58 388.837 28.12 388.157 28.56C387.477 28.9867 386.764 29.3333 386.017 29.6C385.284 29.8533 384.531 30.0333 383.757 30.14C382.997 30.2467 382.257 30.3 381.537 30.3C380.111 30.3 378.784 30.0667 377.557 29.6C376.331 29.12 375.264 28.42 374.357 27.5C373.451 26.5667 372.737 25.42 372.217 24.06C371.697 22.6867 371.437 21.1 371.437 19.3C371.437 17.9 371.664 16.5867 372.117 15.36C372.571 14.12 373.217 13.0467 374.057 12.14C374.911 11.22 375.944 10.4933 377.157 9.96C378.384 9.42667 379.764 9.16 381.297 9.16C382.591 9.16 383.784 9.36667 384.877 9.78C385.971 10.1933 386.911 10.8 387.697 11.6C388.484 12.3867 389.097 13.36 389.537 14.52C389.991 15.6667 390.217 16.98 390.217 18.46C390.217 19.2067 390.137 19.7133 389.977 19.98C389.817 20.2333 389.511 20.36 389.057 20.36H376.357ZM406.444 13.48C406.311 13.6933 406.171 13.8467 406.024 13.94C405.878 14.02 405.691 14.06 405.464 14.06C405.224 14.06 404.964 13.9933 404.684 13.86C404.418 13.7267 404.104 13.58 403.744 13.42C403.384 13.2467 402.971 13.0933 402.504 12.96C402.051 12.8267 401.511 12.76 400.884 12.76C399.911 12.76 399.144 12.9667 398.584 13.38C398.038 13.7933 397.764 14.3333 397.764 15C397.764 15.44 397.904 15.8133 398.184 16.12C398.478 16.4133 398.858 16.6733 399.324 16.9C399.804 17.1267 400.344 17.3333 400.944 17.52C401.544 17.6933 402.151 17.8867 402.764 18.1C403.391 18.3133 404.004 18.56 404.604 18.84C405.204 19.1067 405.738 19.4533 406.204 19.88C406.684 20.2933 407.064 20.7933 407.344 21.38C407.638 21.9667 407.784 22.6733 407.784 23.5C407.784 24.4867 407.604 25.4 407.244 26.24C406.898 27.0667 406.378 27.7867 405.684 28.4C404.991 29 404.131 29.4733 403.104 29.82C402.091 30.1533 400.918 30.32 399.584 30.32C398.878 30.32 398.184 30.2533 397.504 30.12C396.838 30 396.191 29.8267 395.564 29.6C394.951 29.3733 394.378 29.1067 393.844 28.8C393.324 28.4933 392.864 28.16 392.464 27.8L393.604 25.92C393.751 25.6933 393.924 25.52 394.124 25.4C394.324 25.28 394.578 25.22 394.884 25.22C395.191 25.22 395.478 25.3067 395.744 25.48C396.024 25.6533 396.344 25.84 396.704 26.04C397.064 26.24 397.484 26.4267 397.964 26.6C398.458 26.7733 399.078 26.86 399.824 26.86C400.411 26.86 400.911 26.7933 401.324 26.66C401.751 26.5133 402.098 26.3267 402.364 26.1C402.644 25.8733 402.844 25.6133 402.964 25.32C403.098 25.0133 403.164 24.7 403.164 24.38C403.164 23.9 403.018 23.5067 402.724 23.2C402.444 22.8933 402.064 22.6267 401.584 22.4C401.118 22.1733 400.578 21.9733 399.964 21.8C399.364 21.6133 398.744 21.4133 398.104 21.2C397.478 20.9867 396.858 20.74 396.244 20.46C395.644 20.1667 395.104 19.8 394.624 19.36C394.158 18.92 393.778 18.38 393.484 17.74C393.204 17.1 393.064 16.3267 393.064 15.42C393.064 14.58 393.231 13.78 393.564 13.02C393.898 12.26 394.384 11.6 395.024 11.04C395.678 10.4667 396.484 10.0133 397.444 9.68C398.418 9.33333 399.538 9.16 400.804 9.16C402.218 9.16 403.504 9.39333 404.664 9.86C405.824 10.3267 406.791 10.94 407.564 11.7L406.444 13.48ZM432.203 30H427.263V13.18H417.743V24.3C417.743 24.94 417.896 25.44 418.203 25.8C418.523 26.16 418.956 26.34 419.503 26.34C419.809 26.34 420.063 26.3067 420.263 26.24C420.476 26.16 420.656 26.08 420.803 26C420.963 25.92 421.103 25.8467 421.223 25.78C421.343 25.7 421.463 25.66 421.583 25.66C421.729 25.66 421.849 25.7 421.943 25.78C422.036 25.8467 422.136 25.9533 422.243 26.1L423.723 28.5C423.003 29.1 422.176 29.5533 421.243 29.86C420.309 30.1667 419.343 30.32 418.343 30.32C416.556 30.32 415.183 29.82 414.223 28.82C413.276 27.8067 412.803 26.4133 412.803 24.64V13.18H410.703C410.436 13.18 410.209 13.0933 410.023 12.92C409.836 12.7467 409.743 12.4867 409.743 12.14V10.18L413.043 9.62L414.083 4.04C414.149 3.77333 414.276 3.56666 414.463 3.42C414.649 3.27333 414.889 3.2 415.183 3.2H417.743V9.66H432.203V30ZM433.063 3.42C433.063 3.84667 432.976 4.25333 432.803 4.64C432.629 5.01333 432.396 5.34 432.103 5.62C431.823 5.9 431.483 6.12667 431.083 6.3C430.696 6.46 430.283 6.54 429.843 6.54C429.416 6.54 429.016 6.46 428.643 6.3C428.269 6.12667 427.943 5.9 427.663 5.62C427.383 5.34 427.156 5.01333 426.983 4.64C426.823 4.25333 426.743 3.84667 426.743 3.42C426.743 2.98 426.823 2.57333 426.983 2.2C427.156 1.81333 427.383 1.48 427.663 1.2C427.943 0.906666 428.269 0.679999 428.643 0.519998C429.016 0.346665 429.416 0.259998 429.843 0.259998C430.283 0.259998 430.696 0.346665 431.083 0.519998C431.483 0.679999 431.823 0.906666 432.103 1.2C432.396 1.48 432.629 1.81333 432.803 2.2C432.976 2.57333 433.063 2.98 433.063 3.42ZM446.325 9.16C447.845 9.16 449.225 9.40667 450.465 9.9C451.718 10.3933 452.785 11.0933 453.665 12C454.558 12.9067 455.245 14.0133 455.725 15.32C456.205 16.6267 456.445 18.0867 456.445 19.7C456.445 21.3267 456.205 22.7933 455.725 24.1C455.245 25.4067 454.558 26.52 453.665 27.44C452.785 28.36 451.718 29.0667 450.465 29.56C449.225 30.0533 447.845 30.3 446.325 30.3C444.791 30.3 443.398 30.0533 442.145 29.56C440.891 29.0667 439.818 28.36 438.925 27.44C438.045 26.52 437.358 25.4067 436.865 24.1C436.385 22.7933 436.145 21.3267 436.145 19.7C436.145 18.0867 436.385 16.6267 436.865 15.32C437.358 14.0133 438.045 12.9067 438.925 12C439.818 11.0933 440.891 10.3933 442.145 9.9C443.398 9.40667 444.791 9.16 446.325 9.16ZM446.325 26.5C448.031 26.5 449.291 25.9267 450.105 24.78C450.931 23.6333 451.345 21.9533 451.345 19.74C451.345 17.5267 450.931 15.84 450.105 14.68C449.291 13.52 448.031 12.94 446.325 12.94C444.591 12.94 443.305 13.5267 442.465 14.7C441.638 15.86 441.225 17.54 441.225 19.74C441.225 21.94 441.638 23.62 442.465 24.78C443.305 25.9267 444.591 26.5 446.325 26.5ZM464.833 12C465.247 11.5867 465.68 11.2067 466.133 10.86C466.6 10.5 467.087 10.2 467.593 9.96C468.113 9.70667 468.667 9.51333 469.253 9.38C469.84 9.23333 470.48 9.16 471.173 9.16C472.293 9.16 473.287 9.35333 474.153 9.74C475.02 10.1133 475.74 10.6467 476.313 11.34C476.9 12.02 477.34 12.84 477.633 13.8C477.94 14.7467 478.093 15.7933 478.093 16.94V30H473.153V16.94C473.153 15.6867 472.867 14.72 472.293 14.04C471.72 13.3467 470.847 13 469.673 13C468.82 13 468.02 13.1933 467.273 13.58C466.527 13.9667 465.82 14.4933 465.153 15.16V30H460.213V9.48H463.233C463.873 9.48 464.293 9.78 464.493 10.38L464.833 12ZM495.312 13.48C495.178 13.6933 495.038 13.8467 494.892 13.94C494.745 14.02 494.558 14.06 494.332 14.06C494.092 14.06 493.832 13.9933 493.552 13.86C493.285 13.7267 492.972 13.58 492.612 13.42C492.252 13.2467 491.838 13.0933 491.372 12.96C490.918 12.8267 490.378 12.76 489.752 12.76C488.778 12.76 488.012 12.9667 487.452 13.38C486.905 13.7933 486.632 14.3333 486.632 15C486.632 15.44 486.772 15.8133 487.052 16.12C487.345 16.4133 487.725 16.6733 488.192 16.9C488.672 17.1267 489.212 17.3333 489.812 17.52C490.412 17.6933 491.018 17.8867 491.632 18.1C492.258 18.3133 492.872 18.56 493.472 18.84C494.072 19.1067 494.605 19.4533 495.072 19.88C495.552 20.2933 495.932 20.7933 496.212 21.38C496.505 21.9667 496.652 22.6733 496.652 23.5C496.652 24.4867 496.472 25.4 496.112 26.24C495.765 27.0667 495.245 27.7867 494.552 28.4C493.858 29 492.998 29.4733 491.972 29.82C490.958 30.1533 489.785 30.32 488.452 30.32C487.745 30.32 487.052 30.2533 486.372 30.12C485.705 30 485.058 29.8267 484.432 29.6C483.818 29.3733 483.245 29.1067 482.712 28.8C482.192 28.4933 481.732 28.16 481.332 27.8L482.472 25.92C482.618 25.6933 482.792 25.52 482.992 25.4C483.192 25.28 483.445 25.22 483.752 25.22C484.058 25.22 484.345 25.3067 484.612 25.48C484.892 25.6533 485.212 25.84 485.572 26.04C485.932 26.24 486.352 26.4267 486.832 26.6C487.325 26.7733 487.945 26.86 488.692 26.86C489.278 26.86 489.778 26.7933 490.192 26.66C490.618 26.5133 490.965 26.3267 491.232 26.1C491.512 25.8733 491.712 25.6133 491.832 25.32C491.965 25.0133 492.032 24.7 492.032 24.38C492.032 23.9 491.885 23.5067 491.592 23.2C491.312 22.8933 490.932 22.6267 490.452 22.4C489.985 22.1733 489.445 21.9733 488.832 21.8C488.232 21.6133 487.612 21.4133 486.972 21.2C486.345 20.9867 485.725 20.74 485.112 20.46C484.512 20.1667 483.972 19.8 483.492 19.36C483.025 18.92 482.645 18.38 482.352 17.74C482.072 17.1 481.932 16.3267 481.932 15.42C481.932 14.58 482.098 13.78 482.432 13.02C482.765 12.26 483.252 11.6 483.892 11.04C484.545 10.4667 485.352 10.0133 486.312 9.68C487.285 9.33333 488.405 9.16 489.672 9.16C491.085 9.16 492.372 9.39333 493.532 9.86C494.692 10.3267 495.658 10.94 496.432 11.7L495.312 13.48Z" fill="#242424"/>
</svg>
