<svg width="1128" height="48" viewBox="0 0 1128 48" fill="none" xmlns="http://www.w3.org/2000/svg">
<path d="M28.728 11.896L22.456 32H19.768L14.868 17.09C14.756 16.7913 14.658 16.432 14.574 16.012C14.4713 16.4413 14.3733 16.8007 14.28 17.09L9.324 32H6.65L0.378 11.896H2.87C3.13133 11.896 3.35067 11.9613 3.528 12.092C3.70533 12.2133 3.822 12.3813 3.878 12.596L7.84 26.05C7.91467 26.3113 7.98 26.596 8.036 26.904C8.10133 27.212 8.16667 27.534 8.232 27.87C8.29733 27.534 8.36267 27.212 8.428 26.904C8.50267 26.596 8.58667 26.3113 8.68 26.05L13.216 12.596C13.272 12.4093 13.3887 12.246 13.566 12.106C13.7527 11.966 13.972 11.896 14.224 11.896H15.078C15.3393 11.896 15.554 11.9613 15.722 12.092C15.89 12.2227 16.0113 12.3907 16.086 12.596L20.608 26.05C20.776 26.5633 20.9253 27.1467 21.056 27.8C21.168 27.156 21.2893 26.5727 21.42 26.05L25.396 12.596C25.4427 12.4093 25.5593 12.246 25.746 12.106C25.9327 11.966 26.152 11.896 26.404 11.896H28.728ZM33.5777 19.582C34.175 18.9753 34.833 18.4853 35.5517 18.112C36.2797 17.7387 37.115 17.552 38.0577 17.552C38.8417 17.552 39.5277 17.6827 40.1157 17.944C40.713 18.2053 41.2124 18.574 41.6137 19.05C42.015 19.5167 42.3184 20.0813 42.5237 20.744C42.729 21.4067 42.8317 22.1393 42.8317 22.942V32H40.0877V22.942C40.0877 21.9247 39.8544 21.136 39.3877 20.576C38.921 20.0067 38.207 19.722 37.2457 19.722C36.5457 19.722 35.8877 19.89 35.2717 20.226C34.665 20.5527 34.1004 21.0007 33.5777 21.57V32H30.8477V11.336H33.5777V19.582ZM58.5922 17.776L50.6962 36.13C50.6122 36.3353 50.5002 36.494 50.3602 36.606C50.2202 36.718 50.0149 36.774 49.7442 36.774H47.7142L50.3182 31.104L44.4802 17.776H46.8602C47.0935 17.776 47.2755 17.832 47.4062 17.944C47.5369 18.056 47.6302 18.182 47.6862 18.322L51.2982 26.862C51.3729 27.0767 51.4429 27.296 51.5082 27.52C51.5829 27.7347 51.6435 27.9493 51.6902 28.164C51.7555 27.94 51.8255 27.7207 51.9002 27.506C51.9749 27.282 52.0542 27.0627 52.1382 26.848L55.6242 18.322C55.6895 18.1633 55.7922 18.0327 55.9322 17.93C56.0722 17.8273 56.2309 17.776 56.4082 17.776H58.5922ZM75.4642 20.226C75.3895 20.3473 75.3102 20.436 75.2262 20.492C75.1422 20.5387 75.0348 20.562 74.9042 20.562C74.7548 20.562 74.5868 20.5107 74.4002 20.408C74.2228 20.3053 74.0035 20.1933 73.7422 20.072C73.4902 19.9507 73.1915 19.8387 72.8462 19.736C72.5008 19.6333 72.0902 19.582 71.6142 19.582C71.2222 19.582 70.8628 19.6333 70.5362 19.736C70.2188 19.8293 69.9482 19.9647 69.7242 20.142C69.5002 20.31 69.3275 20.5153 69.2062 20.758C69.0848 20.9913 69.0242 21.2433 69.0242 21.514C69.0242 21.8687 69.1268 22.1627 69.3322 22.396C69.5468 22.6293 69.8222 22.83 70.1582 22.998C70.5035 23.166 70.8908 23.32 71.3202 23.46C71.7588 23.5907 72.2022 23.7307 72.6502 23.88C73.1075 24.0293 73.5508 24.202 73.9802 24.398C74.4188 24.5847 74.8062 24.8227 75.1422 25.112C75.4875 25.392 75.7628 25.7327 75.9682 26.134C76.1828 26.5353 76.2902 27.0253 76.2902 27.604C76.2902 28.2667 76.1688 28.8827 75.9262 29.452C75.6928 30.012 75.3428 30.4973 74.8762 30.908C74.4188 31.3187 73.8495 31.6407 73.1682 31.874C72.4868 32.1073 71.7075 32.224 70.8302 32.224C69.8502 32.224 68.9448 32.0607 68.1142 31.734C67.2835 31.4073 66.5882 30.992 66.0282 30.488L66.6722 29.438C66.7468 29.3073 66.8402 29.2093 66.9522 29.144C67.0642 29.0693 67.2135 29.032 67.4002 29.032C67.5775 29.032 67.7595 29.0973 67.9462 29.228C68.1328 29.3587 68.3568 29.5033 68.6182 29.662C68.8795 29.8113 69.1968 29.9513 69.5702 30.082C69.9435 30.2033 70.4102 30.264 70.9702 30.264C71.4368 30.264 71.8428 30.208 72.1882 30.096C72.5335 29.9747 72.8182 29.816 73.0422 29.62C73.2755 29.4147 73.4482 29.1813 73.5602 28.92C73.6722 28.6587 73.7282 28.3833 73.7282 28.094C73.7282 27.7207 73.6208 27.4127 73.4062 27.17C73.2008 26.918 72.9255 26.7033 72.5802 26.526C72.2442 26.3487 71.8568 26.1947 71.4182 26.064C70.9795 25.9333 70.5315 25.7933 70.0742 25.644C69.6168 25.4947 69.1688 25.322 68.7302 25.126C68.2915 24.93 67.8995 24.6827 67.5542 24.384C67.2182 24.0853 66.9428 23.7213 66.7282 23.292C66.5228 22.8627 66.4202 22.34 66.4202 21.724C66.4202 21.1733 66.5322 20.646 66.7562 20.142C66.9895 19.638 67.3208 19.1947 67.7502 18.812C68.1888 18.4293 68.7255 18.126 69.3602 17.902C70.0042 17.6687 70.7368 17.552 71.5582 17.552C72.5008 17.552 73.3502 17.7013 74.1062 18C74.8715 18.2987 75.5248 18.7093 76.0662 19.232L75.4642 20.226ZM81.9761 19.582C82.5735 18.9753 83.2315 18.4853 83.9501 18.112C84.6781 17.7387 85.5135 17.552 86.4561 17.552C87.2401 17.552 87.9261 17.6827 88.5141 17.944C89.1115 18.2053 89.6108 18.574 90.0121 19.05C90.4135 19.5167 90.7168 20.0813 90.9221 20.744C91.1275 21.4067 91.2301 22.1393 91.2301 22.942V32H88.4861V22.942C88.4861 21.9247 88.2528 21.136 87.7861 20.576C87.3195 20.0067 86.6055 19.722 85.6441 19.722C84.9441 19.722 84.2861 19.89 83.6701 20.226C83.0635 20.5527 82.4988 21.0007 81.9761 21.57V32H79.2461V11.336H81.9761V19.582ZM100.976 17.552C102.021 17.552 102.964 17.7247 103.804 18.07C104.653 18.406 105.372 18.896 105.96 19.54C106.557 20.1747 107.015 20.9447 107.332 21.85C107.649 22.746 107.808 23.754 107.808 24.874C107.808 25.994 107.649 27.0067 107.332 27.912C107.015 28.8173 106.557 29.5873 105.96 30.222C105.372 30.8567 104.653 31.3467 103.804 31.692C102.964 32.028 102.021 32.196 100.976 32.196C99.9214 32.196 98.9694 32.028 98.1201 31.692C97.2801 31.3467 96.5614 30.8567 95.9641 30.222C95.3668 29.5873 94.9048 28.8173 94.5781 27.912C94.2608 27.0067 94.1021 25.994 94.1021 24.874C94.1021 23.754 94.2608 22.746 94.5781 21.85C94.9048 20.9447 95.3668 20.1747 95.9641 19.54C96.5614 18.896 97.2801 18.406 98.1201 18.07C98.9694 17.7247 99.9214 17.552 100.976 17.552ZM100.976 30.068C102.32 30.068 103.323 29.6153 103.986 28.71C104.649 27.8047 104.98 26.5307 104.98 24.888C104.98 23.2453 104.649 21.9713 103.986 21.066C103.323 20.1513 102.32 19.694 100.976 19.694C99.6134 19.694 98.5961 20.1513 97.9241 21.066C97.2614 21.9713 96.9301 23.2453 96.9301 24.888C96.9301 26.5307 97.2614 27.8047 97.9241 28.71C98.5961 29.6153 99.6134 30.068 100.976 30.068ZM122.686 17.776V32H121.048C120.674 32 120.432 31.818 120.32 31.454L120.124 30.026C119.816 30.3527 119.494 30.6513 119.158 30.922C118.822 31.1927 118.462 31.426 118.08 31.622C117.697 31.8087 117.291 31.9533 116.862 32.056C116.432 32.168 115.97 32.224 115.476 32.224C114.692 32.224 114.001 32.0933 113.404 31.832C112.816 31.5707 112.321 31.2067 111.92 30.74C111.518 30.264 111.215 29.6947 111.01 29.032C110.804 28.3693 110.702 27.6367 110.702 26.834V17.776H113.446V26.834C113.446 27.8513 113.679 28.6447 114.146 29.214C114.612 29.774 115.326 30.054 116.288 30.054C116.988 30.054 117.641 29.8907 118.248 29.564C118.854 29.228 119.424 28.7707 119.956 28.192V17.776H122.686ZM129.296 11.336V32H126.552V11.336H129.296ZM142.365 21.22C141.917 20.632 141.432 20.2213 140.909 19.988C140.396 19.7547 139.817 19.638 139.173 19.638C137.923 19.638 136.952 20.0907 136.261 20.996C135.58 21.892 135.239 23.2033 135.239 24.93C135.239 25.8353 135.314 26.61 135.463 27.254C135.622 27.8887 135.846 28.4113 136.135 28.822C136.434 29.2233 136.798 29.522 137.227 29.718C137.657 29.9047 138.142 29.998 138.683 29.998C139.477 29.998 140.163 29.8207 140.741 29.466C141.32 29.1113 141.861 28.612 142.365 27.968V21.22ZM145.109 11.336V32H143.457C143.075 32 142.837 31.818 142.743 31.454L142.505 29.816C141.899 30.5347 141.208 31.1133 140.433 31.552C139.668 31.9813 138.781 32.196 137.773 32.196C136.961 32.196 136.224 32.0373 135.561 31.72C134.908 31.4027 134.348 30.9407 133.881 30.334C133.415 29.718 133.055 28.9573 132.803 28.052C132.551 27.1467 132.425 26.106 132.425 24.93C132.425 23.8753 132.565 22.8953 132.845 21.99C133.125 21.0847 133.531 20.3007 134.063 19.638C134.595 18.9753 135.239 18.4573 135.995 18.084C136.751 17.7013 137.605 17.51 138.557 17.51C139.416 17.51 140.144 17.65 140.741 17.93C141.348 18.21 141.889 18.6067 142.365 19.12V11.336H145.109ZM156 32V17.776H157.638C158.021 17.776 158.259 17.958 158.352 18.322L158.548 19.68C159.071 19.0547 159.649 18.546 160.284 18.154C160.928 17.7527 161.679 17.552 162.538 17.552C163.481 17.552 164.246 17.8133 164.834 18.336C165.422 18.8493 165.851 19.5493 166.122 20.436C166.327 19.932 166.593 19.498 166.92 19.134C167.247 18.77 167.611 18.4713 168.012 18.238C168.413 18.0047 168.838 17.832 169.286 17.72C169.743 17.608 170.205 17.552 170.672 17.552C171.428 17.552 172.1 17.6733 172.688 17.916C173.285 18.1493 173.789 18.4947 174.2 18.952C174.611 19.4093 174.923 19.974 175.138 20.646C175.353 21.318 175.46 22.0833 175.46 22.942V32H172.716V22.942C172.716 21.878 172.483 21.0753 172.016 20.534C171.559 19.9927 170.887 19.722 170 19.722C169.608 19.722 169.235 19.792 168.88 19.932C168.525 20.0627 168.213 20.2633 167.942 20.534C167.681 20.8047 167.471 21.1407 167.312 21.542C167.163 21.9433 167.088 22.41 167.088 22.942V32H164.344V22.942C164.344 21.8407 164.125 21.0287 163.686 20.506C163.247 19.9833 162.603 19.722 161.754 19.722C161.166 19.722 160.62 19.876 160.116 20.184C159.612 20.492 159.15 20.912 158.73 21.444V32H156ZM191.209 17.776L183.313 36.13C183.229 36.3353 183.117 36.494 182.977 36.606C182.837 36.718 182.632 36.774 182.361 36.774H180.331L182.935 31.104L177.097 17.776H179.477C179.711 17.776 179.893 17.832 180.023 17.944C180.154 18.056 180.247 18.182 180.303 18.322L183.915 26.862C183.99 27.0767 184.06 27.296 184.125 27.52C184.2 27.7347 184.261 27.9493 184.307 28.164C184.373 27.94 184.443 27.7207 184.517 27.506C184.592 27.282 184.671 27.0627 184.755 26.848L188.241 18.322C188.307 18.1633 188.409 18.0327 188.549 17.93C188.689 17.8273 188.848 17.776 189.025 17.776H191.209ZM209.663 20.436C209.579 20.5387 209.495 20.6227 209.411 20.688C209.337 20.744 209.225 20.772 209.075 20.772C208.926 20.772 208.767 20.716 208.599 20.604C208.441 20.4827 208.235 20.3567 207.983 20.226C207.741 20.086 207.442 19.96 207.087 19.848C206.742 19.7267 206.313 19.666 205.799 19.666C205.127 19.666 204.535 19.7873 204.021 20.03C203.508 20.2727 203.079 20.618 202.733 21.066C202.397 21.514 202.141 22.06 201.963 22.704C201.786 23.348 201.697 24.0713 201.697 24.874C201.697 25.7047 201.791 26.4467 201.977 27.1C202.164 27.744 202.43 28.29 202.775 28.738C203.121 29.1767 203.541 29.5127 204.035 29.746C204.53 29.97 205.081 30.082 205.687 30.082C206.275 30.082 206.761 30.012 207.143 29.872C207.526 29.7227 207.843 29.564 208.095 29.396C208.347 29.228 208.557 29.074 208.725 28.934C208.893 28.7847 209.066 28.71 209.243 28.71C209.467 28.71 209.64 28.794 209.761 28.962L210.545 29.97C210.219 30.3713 209.85 30.712 209.439 30.992C209.038 31.272 208.609 31.5007 208.151 31.678C207.694 31.8553 207.213 31.986 206.709 32.07C206.215 32.154 205.711 32.196 205.197 32.196C204.311 32.196 203.48 32.0327 202.705 31.706C201.94 31.3793 201.273 30.9033 200.703 30.278C200.143 29.6527 199.7 28.8873 199.373 27.982C199.047 27.0673 198.883 26.0313 198.883 24.874C198.883 23.8193 199.028 22.844 199.317 21.948C199.616 21.052 200.05 20.282 200.619 19.638C201.198 18.9847 201.907 18.476 202.747 18.112C203.587 17.7387 204.549 17.552 205.631 17.552C206.649 17.552 207.545 17.7153 208.319 18.042C209.094 18.3687 209.785 18.8307 210.391 19.428L209.663 20.436ZM218.91 17.552C219.955 17.552 220.898 17.7247 221.738 18.07C222.587 18.406 223.306 18.896 223.894 19.54C224.491 20.1747 224.948 20.9447 225.266 21.85C225.583 22.746 225.742 23.754 225.742 24.874C225.742 25.994 225.583 27.0067 225.266 27.912C224.948 28.8173 224.491 29.5873 223.894 30.222C223.306 30.8567 222.587 31.3467 221.738 31.692C220.898 32.028 219.955 32.196 218.91 32.196C217.855 32.196 216.903 32.028 216.054 31.692C215.214 31.3467 214.495 30.8567 213.898 30.222C213.3 29.5873 212.838 28.8173 212.512 27.912C212.194 27.0067 212.036 25.994 212.036 24.874C212.036 23.754 212.194 22.746 212.512 21.85C212.838 20.9447 213.3 20.1747 213.898 19.54C214.495 18.896 215.214 18.406 216.054 18.07C216.903 17.7247 217.855 17.552 218.91 17.552ZM218.91 30.068C220.254 30.068 221.257 29.6153 221.92 28.71C222.582 27.8047 222.914 26.5307 222.914 24.888C222.914 23.2453 222.582 21.9713 221.92 21.066C221.257 20.1513 220.254 19.694 218.91 19.694C217.547 19.694 216.53 20.1513 215.858 21.066C215.195 21.9713 214.864 23.2453 214.864 24.888C214.864 26.5307 215.195 27.8047 215.858 28.71C216.53 29.6153 217.547 30.068 218.91 30.068ZM228.789 32V17.776H230.427C230.81 17.776 231.048 17.958 231.141 18.322L231.337 19.68C231.86 19.0547 232.438 18.546 233.073 18.154C233.717 17.7527 234.468 17.552 235.327 17.552C236.27 17.552 237.035 17.8133 237.623 18.336C238.211 18.8493 238.64 19.5493 238.911 20.436C239.116 19.932 239.382 19.498 239.709 19.134C240.036 18.77 240.4 18.4713 240.801 18.238C241.202 18.0047 241.627 17.832 242.075 17.72C242.532 17.608 242.994 17.552 243.461 17.552C244.217 17.552 244.889 17.6733 245.477 17.916C246.074 18.1493 246.578 18.4947 246.989 18.952C247.4 19.4093 247.712 19.974 247.927 20.646C248.142 21.318 248.249 22.0833 248.249 22.942V32H245.505V22.942C245.505 21.878 245.272 21.0753 244.805 20.534C244.348 19.9927 243.676 19.722 242.789 19.722C242.397 19.722 242.024 19.792 241.669 19.932C241.314 20.0627 241.002 20.2633 240.731 20.534C240.47 20.8047 240.26 21.1407 240.101 21.542C239.952 21.9433 239.877 22.41 239.877 22.942V32H237.133V22.942C237.133 21.8407 236.914 21.0287 236.475 20.506C236.036 19.9833 235.392 19.722 234.543 19.722C233.955 19.722 233.409 19.876 232.905 20.184C232.401 20.492 231.939 20.912 231.519 21.444V32H228.789ZM254.652 28.5C255.1 29.088 255.581 29.4987 256.094 29.732C256.617 29.9653 257.2 30.082 257.844 30.082C259.095 30.082 260.061 29.634 260.742 28.738C261.433 27.8327 261.778 26.5167 261.778 24.79C261.778 23.8847 261.699 23.1147 261.54 22.48C261.391 21.836 261.167 21.3133 260.868 20.912C260.579 20.5013 260.219 20.2027 259.79 20.016C259.361 19.82 258.875 19.722 258.334 19.722C257.541 19.722 256.85 19.8993 256.262 20.254C255.683 20.6087 255.147 21.1127 254.652 21.766V28.5ZM254.512 19.904C254.811 19.5493 255.128 19.2273 255.464 18.938C255.809 18.6393 256.178 18.3873 256.57 18.182C256.962 17.9673 257.377 17.804 257.816 17.692C258.264 17.5707 258.74 17.51 259.244 17.51C260.056 17.51 260.789 17.6687 261.442 17.986C262.105 18.3033 262.669 18.77 263.136 19.386C263.603 20.002 263.962 20.7627 264.214 21.668C264.475 22.5733 264.606 23.614 264.606 24.79C264.606 25.8447 264.461 26.8247 264.172 27.73C263.892 28.626 263.486 29.4053 262.954 30.068C262.431 30.7307 261.787 31.2533 261.022 31.636C260.266 32.0093 259.412 32.196 258.46 32.196C257.611 32.196 256.883 32.056 256.276 31.776C255.669 31.496 255.128 31.104 254.652 30.6V36.774H251.922V17.776H253.56C253.943 17.776 254.181 17.958 254.274 18.322L254.512 19.904ZM275.316 25.686C274.205 25.7233 273.263 25.812 272.488 25.952C271.713 26.0827 271.083 26.26 270.598 26.484C270.113 26.708 269.763 26.974 269.548 27.282C269.333 27.5807 269.226 27.9167 269.226 28.29C269.226 28.6447 269.282 28.9527 269.394 29.214C269.515 29.466 269.674 29.676 269.87 29.844C270.075 30.0027 270.313 30.1193 270.584 30.194C270.855 30.2687 271.149 30.306 271.466 30.306C271.886 30.306 272.269 30.264 272.614 30.18C272.969 30.096 273.3 29.9793 273.608 29.83C273.916 29.6713 274.21 29.48 274.49 29.256C274.77 29.032 275.045 28.7753 275.316 28.486V25.686ZM267.308 19.764C268.101 19.008 268.96 18.4433 269.884 18.07C270.817 17.6967 271.839 17.51 272.95 17.51C273.762 17.51 274.481 17.6453 275.106 17.916C275.731 18.1773 276.259 18.546 276.688 19.022C277.117 19.498 277.439 20.0673 277.654 20.73C277.878 21.3927 277.99 22.1253 277.99 22.928V32H276.772C276.501 32 276.296 31.958 276.156 31.874C276.016 31.7807 275.904 31.6127 275.82 31.37L275.526 30.124C275.162 30.46 274.803 30.7587 274.448 31.02C274.093 31.272 273.72 31.4913 273.328 31.678C272.945 31.8553 272.535 31.9907 272.096 32.084C271.657 32.1773 271.172 32.224 270.64 32.224C270.08 32.224 269.553 32.1493 269.058 32C268.573 31.8413 268.148 31.6033 267.784 31.286C267.42 30.9687 267.131 30.572 266.916 30.096C266.711 29.62 266.608 29.0647 266.608 28.43C266.608 27.87 266.757 27.3333 267.056 26.82C267.364 26.2973 267.859 25.8307 268.54 25.42C269.231 25.0093 270.127 24.6733 271.228 24.412C272.339 24.1507 273.701 24.0013 275.316 23.964V22.928C275.316 21.8547 275.087 21.052 274.63 20.52C274.173 19.988 273.501 19.722 272.614 19.722C272.017 19.722 271.513 19.7967 271.102 19.946C270.701 20.0953 270.351 20.2633 270.052 20.45C269.763 20.6273 269.506 20.7907 269.282 20.94C269.067 21.0893 268.843 21.164 268.61 21.164C268.423 21.164 268.26 21.1127 268.12 21.01C267.989 20.9073 267.882 20.786 267.798 20.646L267.308 19.764ZM284.207 19.75C284.515 19.4233 284.837 19.1247 285.173 18.854C285.509 18.5833 285.863 18.3547 286.237 18.168C286.619 17.972 287.025 17.8227 287.455 17.72C287.893 17.608 288.36 17.552 288.855 17.552C289.639 17.552 290.325 17.6827 290.913 17.944C291.51 18.2053 292.009 18.574 292.411 19.05C292.812 19.5167 293.115 20.0813 293.321 20.744C293.526 21.4067 293.629 22.1393 293.629 22.942V32H290.885V22.942C290.885 21.9247 290.651 21.136 290.185 20.576C289.718 20.0067 289.004 19.722 288.043 19.722C287.343 19.722 286.685 19.89 286.069 20.226C285.462 20.5527 284.897 21.0007 284.375 21.57V32H281.645V17.776H283.283C283.665 17.776 283.903 17.958 283.997 18.322L284.207 19.75ZM309.389 17.776L301.493 36.13C301.409 36.3353 301.297 36.494 301.157 36.606C301.017 36.718 300.812 36.774 300.541 36.774H298.511L301.115 31.104L295.277 17.776H297.657C297.89 17.776 298.072 17.832 298.203 17.944C298.334 18.056 298.427 18.182 298.483 18.322L302.095 26.862C302.17 27.0767 302.24 27.296 302.305 27.52C302.38 27.7347 302.44 27.9493 302.487 28.164C302.552 27.94 302.622 27.7207 302.697 27.506C302.772 27.282 302.851 27.0627 302.935 26.848L306.421 18.322C306.486 18.1633 306.589 18.0327 306.729 17.93C306.869 17.8273 307.028 17.776 307.205 17.776H309.389ZM329.705 17.776V32H328.067C327.694 32 327.451 31.818 327.339 31.454L327.143 30.026C326.835 30.3527 326.513 30.6513 326.177 30.922C325.841 31.1927 325.482 31.426 325.099 31.622C324.716 31.8087 324.31 31.9533 323.881 32.056C323.452 32.168 322.99 32.224 322.495 32.224C321.711 32.224 321.02 32.0933 320.423 31.832C319.835 31.5707 319.34 31.2067 318.939 30.74C318.538 30.264 318.234 29.6947 318.029 29.032C317.824 28.3693 317.721 27.6367 317.721 26.834V17.776H320.465V26.834C320.465 27.8513 320.698 28.6447 321.165 29.214C321.632 29.774 322.346 30.054 323.307 30.054C324.007 30.054 324.66 29.8907 325.267 29.564C325.874 29.228 326.443 28.7707 326.975 28.192V17.776H329.705ZM341.902 20.226C341.827 20.3473 341.748 20.436 341.664 20.492C341.58 20.5387 341.472 20.562 341.342 20.562C341.192 20.562 341.024 20.5107 340.838 20.408C340.66 20.3053 340.441 20.1933 340.18 20.072C339.928 19.9507 339.629 19.8387 339.284 19.736C338.938 19.6333 338.528 19.582 338.052 19.582C337.66 19.582 337.3 19.6333 336.974 19.736C336.656 19.8293 336.386 19.9647 336.162 20.142C335.938 20.31 335.765 20.5153 335.644 20.758C335.522 20.9913 335.462 21.2433 335.462 21.514C335.462 21.8687 335.564 22.1627 335.77 22.396C335.984 22.6293 336.26 22.83 336.596 22.998C336.941 23.166 337.328 23.32 337.758 23.46C338.196 23.5907 338.64 23.7307 339.088 23.88C339.545 24.0293 339.988 24.202 340.418 24.398C340.856 24.5847 341.244 24.8227 341.58 25.112C341.925 25.392 342.2 25.7327 342.406 26.134C342.62 26.5353 342.728 27.0253 342.728 27.604C342.728 28.2667 342.606 28.8827 342.364 29.452C342.13 30.012 341.78 30.4973 341.314 30.908C340.856 31.3187 340.287 31.6407 339.606 31.874C338.924 32.1073 338.145 32.224 337.268 32.224C336.288 32.224 335.382 32.0607 334.552 31.734C333.721 31.4073 333.026 30.992 332.466 30.488L333.11 29.438C333.184 29.3073 333.278 29.2093 333.39 29.144C333.502 29.0693 333.651 29.032 333.838 29.032C334.015 29.032 334.197 29.0973 334.384 29.228C334.57 29.3587 334.794 29.5033 335.056 29.662C335.317 29.8113 335.634 29.9513 336.008 30.082C336.381 30.2033 336.848 30.264 337.408 30.264C337.874 30.264 338.28 30.208 338.626 30.096C338.971 29.9747 339.256 29.816 339.48 29.62C339.713 29.4147 339.886 29.1813 339.998 28.92C340.11 28.6587 340.166 28.3833 340.166 28.094C340.166 27.7207 340.058 27.4127 339.844 27.17C339.638 26.918 339.363 26.7033 339.018 26.526C338.682 26.3487 338.294 26.1947 337.856 26.064C337.417 25.9333 336.969 25.7933 336.512 25.644C336.054 25.4947 335.606 25.322 335.168 25.126C334.729 24.93 334.337 24.6827 333.992 24.384C333.656 24.0853 333.38 23.7213 333.166 23.292C332.96 22.8627 332.858 22.34 332.858 21.724C332.858 21.1733 332.97 20.646 333.194 20.142C333.427 19.638 333.758 19.1947 334.188 18.812C334.626 18.4293 335.163 18.126 335.798 17.902C336.442 17.6687 337.174 17.552 337.996 17.552C338.938 17.552 339.788 17.7013 340.544 18C341.309 18.2987 341.962 18.7093 342.504 19.232L341.902 20.226ZM355.106 23.306C355.106 22.7647 355.026 22.2653 354.868 21.808C354.718 21.3507 354.494 20.954 354.196 20.618C353.897 20.282 353.533 20.0207 353.104 19.834C352.674 19.6473 352.18 19.554 351.62 19.554C350.472 19.554 349.566 19.8853 348.904 20.548C348.25 21.2107 347.835 22.13 347.658 23.306H355.106ZM357.36 29.97C357.024 30.362 356.636 30.7027 356.198 30.992C355.759 31.272 355.292 31.5007 354.798 31.678C354.303 31.8553 353.79 31.986 353.258 32.07C352.735 32.154 352.217 32.196 351.704 32.196C350.724 32.196 349.814 32.0327 348.974 31.706C348.143 31.37 347.42 30.8847 346.804 30.25C346.197 29.606 345.721 28.8127 345.376 27.87C345.04 26.918 344.872 25.826 344.872 24.594C344.872 23.6047 345.026 22.6853 345.334 21.836C345.642 20.9773 346.08 20.2307 346.65 19.596C347.228 18.9613 347.933 18.462 348.764 18.098C349.594 17.734 350.528 17.552 351.564 17.552C352.432 17.552 353.23 17.6967 353.958 17.986C354.695 18.266 355.33 18.6767 355.862 19.218C356.394 19.7593 356.809 20.4267 357.108 21.22C357.416 22.0133 357.57 22.9187 357.57 23.936C357.57 24.356 357.523 24.6407 357.43 24.79C357.336 24.93 357.164 25 356.912 25H347.588C347.616 25.8493 347.737 26.5913 347.952 27.226C348.166 27.8513 348.46 28.374 348.834 28.794C349.216 29.214 349.669 29.5267 350.192 29.732C350.714 29.9373 351.298 30.04 351.942 30.04C352.548 30.04 353.071 29.97 353.51 29.83C353.958 29.69 354.34 29.5407 354.658 29.382C354.984 29.214 355.255 29.06 355.47 28.92C355.694 28.78 355.89 28.71 356.058 28.71C356.282 28.71 356.454 28.794 356.576 28.962L357.36 29.97ZM381.684 13.002C381.684 13.338 381.581 13.66 381.376 13.968L370.274 29.578H381.488V32H366.368V30.824C366.368 30.6653 366.391 30.516 366.438 30.376C366.494 30.236 366.564 30.1007 366.648 29.97L377.778 14.318H366.928V11.896H381.684V13.002ZM395.658 17.776V32H394.02C393.647 32 393.404 31.818 393.292 31.454L393.096 30.026C392.788 30.3527 392.466 30.6513 392.13 30.922C391.794 31.1927 391.435 31.426 391.052 31.622C390.669 31.8087 390.263 31.9533 389.834 32.056C389.405 32.168 388.943 32.224 388.448 32.224C387.664 32.224 386.973 32.0933 386.376 31.832C385.788 31.5707 385.293 31.2067 384.892 30.74C384.491 30.264 384.187 29.6947 383.982 29.032C383.777 28.3693 383.674 27.6367 383.674 26.834V17.776H386.418V26.834C386.418 27.8513 386.651 28.6447 387.118 29.214C387.585 29.774 388.299 30.054 389.26 30.054C389.96 30.054 390.613 29.8907 391.22 29.564C391.827 29.228 392.396 28.7707 392.928 28.192V17.776H395.658ZM402.045 20.506C402.502 19.5727 403.053 18.84 403.697 18.308C404.341 17.776 405.115 17.51 406.021 17.51C406.329 17.51 406.618 17.5473 406.889 17.622C407.169 17.6873 407.411 17.79 407.617 17.93L407.435 19.988C407.369 20.24 407.215 20.366 406.973 20.366C406.842 20.366 406.646 20.3427 406.385 20.296C406.123 20.24 405.843 20.212 405.545 20.212C405.106 20.212 404.719 20.2773 404.383 20.408C404.047 20.5293 403.743 20.716 403.473 20.968C403.211 21.2107 402.978 21.514 402.773 21.878C402.567 22.2327 402.376 22.6387 402.199 23.096V32H399.469V17.776H401.037C401.335 17.776 401.536 17.832 401.639 17.944C401.751 18.0467 401.83 18.2333 401.877 18.504L402.045 20.506ZM412.579 17.776V32H409.849V17.776H412.579ZM413.097 13.38C413.097 13.632 413.045 13.8747 412.943 14.108C412.84 14.332 412.7 14.5327 412.523 14.71C412.355 14.878 412.154 15.0133 411.921 15.116C411.687 15.2093 411.445 15.256 411.193 15.256C410.941 15.256 410.703 15.2093 410.479 15.116C410.255 15.0133 410.054 14.878 409.877 14.71C409.709 14.5327 409.573 14.332 409.471 14.108C409.377 13.8747 409.331 13.632 409.331 13.38C409.331 13.1187 409.377 12.876 409.471 12.652C409.573 12.4187 409.709 12.218 409.877 12.05C410.054 11.8727 410.255 11.7373 410.479 11.644C410.703 11.5413 410.941 11.49 411.193 11.49C411.445 11.49 411.687 11.5413 411.921 11.644C412.154 11.7373 412.355 11.8727 412.523 12.05C412.7 12.218 412.84 12.4187 412.943 12.652C413.045 12.876 413.097 13.1187 413.097 13.38ZM438.215 27.688C438.383 27.688 438.528 27.7533 438.649 27.884L439.825 29.172C439.004 30.1427 438.001 30.894 436.815 31.426C435.639 31.958 434.221 32.224 432.559 32.224C431.103 32.224 429.783 31.972 428.597 31.468C427.421 30.964 426.413 30.2593 425.573 29.354C424.743 28.4487 424.099 27.366 423.641 26.106C423.184 24.846 422.955 23.46 422.955 21.948C422.955 20.436 423.193 19.05 423.669 17.79C424.155 16.53 424.831 15.4473 425.699 14.542C426.567 13.6367 427.603 12.932 428.807 12.428C430.021 11.924 431.36 11.672 432.825 11.672C434.253 11.672 435.523 11.9053 436.633 12.372C437.744 12.8387 438.71 13.4593 439.531 14.234L438.551 15.62C438.486 15.7227 438.402 15.8067 438.299 15.872C438.206 15.9373 438.08 15.97 437.921 15.97C437.744 15.97 437.534 15.8813 437.291 15.704C437.058 15.5267 436.745 15.3307 436.353 15.116C435.971 14.892 435.495 14.6913 434.925 14.514C434.356 14.3367 433.647 14.248 432.797 14.248C431.799 14.248 430.884 14.4253 430.053 14.78C429.223 15.1253 428.504 15.6293 427.897 16.292C427.3 16.9453 426.833 17.7527 426.497 18.714C426.171 19.666 426.007 20.744 426.007 21.948C426.007 23.1707 426.18 24.258 426.525 25.21C426.871 26.162 427.347 26.9693 427.953 27.632C428.56 28.2947 429.274 28.7987 430.095 29.144C430.917 29.4893 431.803 29.662 432.755 29.662C433.334 29.662 433.852 29.6293 434.309 29.564C434.776 29.4893 435.201 29.382 435.583 29.242C435.975 29.102 436.344 28.9247 436.689 28.71C437.035 28.486 437.375 28.22 437.711 27.912C437.786 27.8467 437.865 27.7953 437.949 27.758C438.033 27.7113 438.122 27.688 438.215 27.688ZM444.992 19.582C445.589 18.9753 446.247 18.4853 446.966 18.112C447.694 17.7387 448.529 17.552 449.472 17.552C450.256 17.552 450.942 17.6827 451.53 17.944C452.127 18.2053 452.626 18.574 453.028 19.05C453.429 19.5167 453.732 20.0813 453.938 20.744C454.143 21.4067 454.246 22.1393 454.246 22.942V32H451.502V22.942C451.502 21.9247 451.268 21.136 450.802 20.576C450.335 20.0067 449.621 19.722 448.66 19.722C447.96 19.722 447.302 19.89 446.686 20.226C446.079 20.5527 445.514 21.0007 444.992 21.57V32H442.262V11.336H444.992V19.582ZM465.574 25.686C464.463 25.7233 463.52 25.812 462.746 25.952C461.971 26.0827 461.341 26.26 460.856 26.484C460.37 26.708 460.02 26.974 459.806 27.282C459.591 27.5807 459.484 27.9167 459.484 28.29C459.484 28.6447 459.54 28.9527 459.652 29.214C459.773 29.466 459.932 29.676 460.128 29.844C460.333 30.0027 460.571 30.1193 460.842 30.194C461.112 30.2687 461.406 30.306 461.724 30.306C462.144 30.306 462.526 30.264 462.872 30.18C463.226 30.096 463.558 29.9793 463.866 29.83C464.174 29.6713 464.468 29.48 464.748 29.256C465.028 29.032 465.303 28.7753 465.574 28.486V25.686ZM457.566 19.764C458.359 19.008 459.218 18.4433 460.142 18.07C461.075 17.6967 462.097 17.51 463.208 17.51C464.02 17.51 464.738 17.6453 465.364 17.916C465.989 18.1773 466.516 18.546 466.946 19.022C467.375 19.498 467.697 20.0673 467.912 20.73C468.136 21.3927 468.248 22.1253 468.248 22.928V32H467.03C466.759 32 466.554 31.958 466.414 31.874C466.274 31.7807 466.162 31.6127 466.078 31.37L465.784 30.124C465.42 30.46 465.06 30.7587 464.706 31.02C464.351 31.272 463.978 31.4913 463.586 31.678C463.203 31.8553 462.792 31.9907 462.354 32.084C461.915 32.1773 461.43 32.224 460.898 32.224C460.338 32.224 459.81 32.1493 459.316 32C458.83 31.8413 458.406 31.6033 458.042 31.286C457.678 30.9687 457.388 30.572 457.174 30.096C456.968 29.62 456.866 29.0647 456.866 28.43C456.866 27.87 457.015 27.3333 457.314 26.82C457.622 26.2973 458.116 25.8307 458.798 25.42C459.488 25.0093 460.384 24.6733 461.486 24.412C462.596 24.1507 463.959 24.0013 465.574 23.964V22.928C465.574 21.8547 465.345 21.052 464.888 20.52C464.43 19.988 463.758 19.722 462.872 19.722C462.274 19.722 461.77 19.7967 461.36 19.946C460.958 20.0953 460.608 20.2633 460.31 20.45C460.02 20.6273 459.764 20.7907 459.54 20.94C459.325 21.0893 459.101 21.164 458.868 21.164C458.681 21.164 458.518 21.1127 458.378 21.01C458.247 20.9073 458.14 20.786 458.056 20.646L457.566 19.764ZM476.163 32.224C475.015 32.224 474.128 31.902 473.503 31.258C472.887 30.614 472.579 29.6947 472.579 28.5V19.988H470.927C470.768 19.988 470.633 19.9413 470.521 19.848C470.418 19.7453 470.367 19.596 470.367 19.4V18.294L472.677 17.972L473.293 13.73C473.33 13.5713 473.4 13.45 473.503 13.366C473.615 13.2727 473.755 13.226 473.923 13.226H475.309V18H479.341V19.988H475.309V28.318C475.309 28.878 475.444 29.298 475.715 29.578C475.995 29.8487 476.35 29.984 476.779 29.984C477.031 29.984 477.246 29.9513 477.423 29.886C477.61 29.8207 477.768 29.7507 477.899 29.676C478.03 29.592 478.142 29.5173 478.235 29.452C478.328 29.3867 478.412 29.354 478.487 29.354C478.58 29.354 478.65 29.3773 478.697 29.424C478.753 29.4613 478.809 29.5267 478.865 29.62L479.677 30.936C479.229 31.3467 478.697 31.664 478.081 31.888C477.465 32.112 476.826 32.224 476.163 32.224ZM481.044 13.688C481.342 13.4173 481.669 13.1607 482.024 12.918C482.378 12.6753 482.766 12.4607 483.186 12.274C483.606 12.0873 484.058 11.9427 484.544 11.84C485.038 11.728 485.57 11.672 486.14 11.672C486.896 11.672 487.591 11.7793 488.226 11.994C488.87 12.2087 489.42 12.5167 489.878 12.918C490.344 13.3193 490.708 13.8047 490.97 14.374C491.231 14.934 491.362 15.564 491.362 16.264C491.362 16.9733 491.254 17.5893 491.04 18.112C490.834 18.6253 490.573 19.0733 490.256 19.456C489.938 19.8387 489.588 20.1747 489.206 20.464C488.832 20.744 488.478 21.01 488.142 21.262C487.815 21.514 487.53 21.766 487.288 22.018C487.054 22.2607 486.914 22.536 486.868 22.844L486.602 24.958H484.74L484.544 22.648C484.497 22.2187 484.572 21.8453 484.768 21.528C484.964 21.2107 485.216 20.9167 485.524 20.646C485.841 20.366 486.191 20.0953 486.574 19.834C486.956 19.5727 487.311 19.2833 487.638 18.966C487.964 18.6393 488.24 18.2753 488.464 17.874C488.688 17.4633 488.8 16.978 488.8 16.418C488.8 16.0353 488.725 15.69 488.576 15.382C488.426 15.074 488.221 14.8127 487.96 14.598C487.698 14.374 487.39 14.206 487.036 14.094C486.681 13.9727 486.303 13.912 485.902 13.912C485.342 13.912 484.866 13.982 484.474 14.122C484.082 14.2527 483.746 14.3973 483.466 14.556C483.195 14.7147 482.971 14.864 482.794 15.004C482.616 15.1347 482.467 15.2 482.346 15.2C482.075 15.2 481.879 15.0833 481.758 14.85L481.044 13.688ZM483.76 30.362C483.76 30.11 483.806 29.872 483.9 29.648C483.993 29.424 484.119 29.228 484.278 29.06C484.446 28.892 484.642 28.7613 484.866 28.668C485.09 28.5653 485.332 28.514 485.594 28.514C485.846 28.514 486.084 28.5653 486.308 28.668C486.532 28.7613 486.728 28.892 486.896 29.06C487.064 29.228 487.194 29.424 487.288 29.648C487.39 29.872 487.442 30.11 487.442 30.362C487.442 30.6233 487.39 30.866 487.288 31.09C487.194 31.314 487.064 31.51 486.896 31.678C486.728 31.846 486.532 31.9767 486.308 32.07C486.084 32.1633 485.846 32.21 485.594 32.21C485.332 32.21 485.09 32.1633 484.866 32.07C484.642 31.9767 484.446 31.846 484.278 31.678C484.119 31.51 483.993 31.314 483.9 31.09C483.806 30.866 483.76 30.6233 483.76 30.362Z" fill="#3A3A3A"/>
<path d="M1092 18L1104 30L1116 18" stroke="black" stroke-width="2" stroke-linecap="round" stroke-linejoin="round"/>
</svg>
