<svg width="468" height="26" viewBox="0 0 468 26" fill="none" xmlns="http://www.w3.org/2000/svg">
<path d="M16.942 0.895998V21H13.96V11.942H3.474V21H0.478V0.895998H3.474V9.772H13.96V0.895998H16.942ZM26.98 6.552C28.0253 6.552 28.968 6.72467 29.808 7.07C30.6573 7.406 31.376 7.896 31.964 8.54C32.5613 9.17467 33.0187 9.94467 33.336 10.85C33.6533 11.746 33.812 12.754 33.812 13.874C33.812 14.994 33.6533 16.0067 33.336 16.912C33.0187 17.8173 32.5613 18.5873 31.964 19.222C31.376 19.8567 30.6573 20.3467 29.808 20.692C28.968 21.028 28.0253 21.196 26.98 21.196C25.9253 21.196 24.9733 21.028 24.124 20.692C23.284 20.3467 22.5653 19.8567 21.968 19.222C21.3707 18.5873 20.9087 17.8173 20.582 16.912C20.2647 16.0067 20.106 14.994 20.106 13.874C20.106 12.754 20.2647 11.746 20.582 10.85C20.9087 9.94467 21.3707 9.17467 21.968 8.54C22.5653 7.896 23.284 7.406 24.124 7.07C24.9733 6.72467 25.9253 6.552 26.98 6.552ZM26.98 19.068C28.324 19.068 29.3273 18.6153 29.99 17.71C30.6527 16.8047 30.984 15.5307 30.984 13.888C30.984 12.2453 30.6527 10.9713 29.99 10.066C29.3273 9.15133 28.324 8.694 26.98 8.694C25.6173 8.694 24.6 9.15133 23.928 10.066C23.2653 10.9713 22.934 12.2453 22.934 13.888C22.934 15.5307 23.2653 16.8047 23.928 17.71C24.6 18.6153 25.6173 19.068 26.98 19.068ZM56.4227 6.776L51.8447 21H49.6607C49.3993 21 49.222 20.8273 49.1287 20.482L46.1327 11.214C46.058 10.9807 45.9927 10.752 45.9367 10.528C45.8807 10.2947 45.8293 10.0613 45.7827 9.828C45.6987 10.3133 45.582 10.7847 45.4327 11.242L42.3947 20.482C42.3013 20.8273 42.1007 21 41.7927 21H39.7207L35.1287 6.776H37.2847C37.4993 6.776 37.6767 6.82733 37.8167 6.93C37.966 7.03267 38.064 7.16333 38.1107 7.322L40.6727 16.058C40.7567 16.4127 40.8313 16.758 40.8967 17.094C40.962 17.43 41.0227 17.766 41.0787 18.102C41.1627 17.766 41.2513 17.43 41.3447 17.094C41.4473 16.758 41.55 16.4127 41.6527 16.058L44.4947 7.266C44.5413 7.10733 44.63 6.98133 44.7607 6.888C44.8913 6.78533 45.05 6.734 45.2367 6.734H46.4267C46.632 6.734 46.8 6.78533 46.9307 6.888C47.0707 6.98133 47.164 7.10733 47.2107 7.266L49.9827 16.058C50.0853 16.4127 50.1833 16.7627 50.2767 17.108C50.37 17.444 50.454 17.7847 50.5287 18.13C50.5847 17.794 50.65 17.458 50.7247 17.122C50.7993 16.7767 50.8833 16.422 50.9767 16.058L53.5807 7.322C53.6273 7.16333 53.7207 7.03267 53.8607 6.93C54.01 6.82733 54.178 6.776 54.3647 6.776H56.4227ZM75.2102 9.436C75.1262 9.53867 75.0422 9.62267 74.9582 9.688C74.8836 9.744 74.7716 9.772 74.6222 9.772C74.4729 9.772 74.3142 9.716 74.1462 9.604C73.9876 9.48267 73.7822 9.35667 73.5302 9.226C73.2876 9.086 72.9889 8.96 72.6342 8.848C72.2889 8.72667 71.8596 8.666 71.3462 8.666C70.6742 8.666 70.0816 8.78733 69.5682 9.03C69.0549 9.27267 68.6256 9.618 68.2802 10.066C67.9442 10.514 67.6876 11.06 67.5102 11.704C67.3329 12.348 67.2442 13.0713 67.2442 13.874C67.2442 14.7047 67.3376 15.4467 67.5242 16.1C67.7109 16.744 67.9769 17.29 68.3222 17.738C68.6676 18.1767 69.0876 18.5127 69.5822 18.746C70.0769 18.97 70.6276 19.082 71.2342 19.082C71.8222 19.082 72.3076 19.012 72.6902 18.872C73.0729 18.7227 73.3902 18.564 73.6422 18.396C73.8942 18.228 74.1042 18.074 74.2722 17.934C74.4402 17.7847 74.6129 17.71 74.7902 17.71C75.0142 17.71 75.1869 17.794 75.3082 17.962L76.0922 18.97C75.7656 19.3713 75.3969 19.712 74.9862 19.992C74.5849 20.272 74.1556 20.5007 73.6982 20.678C73.2409 20.8553 72.7602 20.986 72.2562 21.07C71.7616 21.154 71.2576 21.196 70.7442 21.196C69.8576 21.196 69.0269 21.0327 68.2522 20.706C67.4869 20.3793 66.8196 19.9033 66.2502 19.278C65.6902 18.6527 65.2469 17.8873 64.9202 16.982C64.5936 16.0673 64.4302 15.0313 64.4302 13.874C64.4302 12.8193 64.5749 11.844 64.8642 10.948C65.1629 10.052 65.5969 9.282 66.1662 8.638C66.7449 7.98467 67.4542 7.476 68.2942 7.112C69.1342 6.73867 70.0956 6.552 71.1782 6.552C72.1956 6.552 73.0916 6.71533 73.8662 7.042C74.6409 7.36867 75.3316 7.83067 75.9382 8.428L75.2102 9.436ZM86.2847 14.686C85.174 14.7233 84.2313 14.812 83.4567 14.952C82.682 15.0827 82.052 15.26 81.5667 15.484C81.0813 15.708 80.7313 15.974 80.5167 16.282C80.302 16.5807 80.1947 16.9167 80.1947 17.29C80.1947 17.6447 80.2507 17.9527 80.3627 18.214C80.484 18.466 80.6427 18.676 80.8387 18.844C81.044 19.0027 81.282 19.1193 81.5527 19.194C81.8233 19.2687 82.1173 19.306 82.4347 19.306C82.8547 19.306 83.2373 19.264 83.5827 19.18C83.9373 19.096 84.2687 18.9793 84.5767 18.83C84.8847 18.6713 85.1787 18.48 85.4587 18.256C85.7387 18.032 86.014 17.7753 86.2847 17.486V14.686ZM78.2767 8.764C79.07 8.008 79.9287 7.44333 80.8527 7.07C81.786 6.69667 82.808 6.51 83.9187 6.51C84.7307 6.51 85.4493 6.64533 86.0747 6.916C86.7 7.17733 87.2273 7.546 87.6567 8.022C88.086 8.498 88.408 9.06733 88.6227 9.73C88.8467 10.3927 88.9587 11.1253 88.9587 11.928V21H87.7407C87.47 21 87.2647 20.958 87.1247 20.874C86.9847 20.7807 86.8727 20.6127 86.7887 20.37L86.4947 19.124C86.1307 19.46 85.7713 19.7587 85.4167 20.02C85.062 20.272 84.6887 20.4913 84.2967 20.678C83.914 20.8553 83.5033 20.9907 83.0647 21.084C82.626 21.1773 82.1407 21.224 81.6087 21.224C81.0487 21.224 80.5213 21.1493 80.0267 21C79.5413 20.8413 79.1167 20.6033 78.7527 20.286C78.3887 19.9687 78.0993 19.572 77.8847 19.096C77.6793 18.62 77.5767 18.0647 77.5767 17.43C77.5767 16.87 77.726 16.3333 78.0247 15.82C78.3327 15.2973 78.8273 14.8307 79.5087 14.42C80.1993 14.0093 81.0953 13.6733 82.1967 13.412C83.3073 13.1507 84.67 13.0013 86.2847 12.964V11.928C86.2847 10.8547 86.056 10.052 85.5987 9.52C85.1413 8.988 84.4693 8.722 83.5827 8.722C82.9853 8.722 82.4813 8.79667 82.0707 8.946C81.6693 9.09533 81.3193 9.26333 81.0207 9.45C80.7313 9.62733 80.4747 9.79067 80.2507 9.94C80.036 10.0893 79.812 10.164 79.5787 10.164C79.392 10.164 79.2287 10.1127 79.0887 10.01C78.958 9.90733 78.8507 9.786 78.7667 9.646L78.2767 8.764ZM95.1753 8.75C95.4833 8.42333 95.8053 8.12467 96.1413 7.854C96.4773 7.58333 96.832 7.35467 97.2053 7.168C97.588 6.972 97.994 6.82267 98.4233 6.72C98.862 6.608 99.3286 6.552 99.8233 6.552C100.607 6.552 101.293 6.68267 101.881 6.944C102.479 7.20533 102.978 7.574 103.379 8.05C103.781 8.51667 104.084 9.08133 104.289 9.744C104.495 10.4067 104.597 11.1393 104.597 11.942V21H101.853V11.942C101.853 10.9247 101.62 10.136 101.153 9.576C100.687 9.00667 99.9726 8.722 99.0113 8.722C98.3113 8.722 97.6533 8.89 97.0373 9.226C96.4306 9.55267 95.866 10.0007 95.3433 10.57V21H92.6133V6.776H94.2513C94.634 6.776 94.872 6.958 94.9653 7.322L95.1753 8.75ZM134.571 6.776L129.993 21H127.809C127.548 21 127.37 20.8273 127.277 20.482L124.281 11.214C124.206 10.9807 124.141 10.752 124.085 10.528C124.029 10.2947 123.978 10.0613 123.931 9.828C123.847 10.3133 123.73 10.7847 123.581 11.242L120.543 20.482C120.45 20.8273 120.249 21 119.941 21H117.869L113.277 6.776H115.433C115.648 6.776 115.825 6.82733 115.965 6.93C116.114 7.03267 116.212 7.16333 116.259 7.322L118.821 16.058C118.905 16.4127 118.98 16.758 119.045 17.094C119.11 17.43 119.171 17.766 119.227 18.102C119.311 17.766 119.4 17.43 119.493 17.094C119.596 16.758 119.698 16.4127 119.801 16.058L122.643 7.266C122.69 7.10733 122.778 6.98133 122.909 6.888C123.04 6.78533 123.198 6.734 123.385 6.734H124.575C124.78 6.734 124.948 6.78533 125.079 6.888C125.219 6.98133 125.312 7.10733 125.359 7.266L128.131 16.058C128.234 16.4127 128.332 16.7627 128.425 17.108C128.518 17.444 128.602 17.7847 128.677 18.13C128.733 17.794 128.798 17.458 128.873 17.122C128.948 16.7767 129.032 16.422 129.125 16.058L131.729 7.322C131.776 7.16333 131.869 7.03267 132.009 6.93C132.158 6.82733 132.326 6.776 132.513 6.776H134.571ZM146.086 12.306C146.086 11.7647 146.007 11.2653 145.848 10.808C145.699 10.3507 145.475 9.954 145.176 9.618C144.877 9.282 144.513 9.02067 144.084 8.834C143.655 8.64733 143.16 8.554 142.6 8.554C141.452 8.554 140.547 8.88533 139.884 9.548C139.231 10.2107 138.815 11.13 138.638 12.306H146.086ZM148.34 18.97C148.004 19.362 147.617 19.7027 147.178 19.992C146.739 20.272 146.273 20.5007 145.778 20.678C145.283 20.8553 144.77 20.986 144.238 21.07C143.715 21.154 143.197 21.196 142.684 21.196C141.704 21.196 140.794 21.0327 139.954 20.706C139.123 20.37 138.4 19.8847 137.784 19.25C137.177 18.606 136.701 17.8127 136.356 16.87C136.02 15.918 135.852 14.826 135.852 13.594C135.852 12.6047 136.006 11.6853 136.314 10.836C136.622 9.97733 137.061 9.23067 137.63 8.596C138.209 7.96133 138.913 7.462 139.744 7.098C140.575 6.734 141.508 6.552 142.544 6.552C143.412 6.552 144.21 6.69667 144.938 6.986C145.675 7.266 146.31 7.67667 146.842 8.218C147.374 8.75933 147.789 9.42667 148.088 10.22C148.396 11.0133 148.55 11.9187 148.55 12.936C148.55 13.356 148.503 13.6407 148.41 13.79C148.317 13.93 148.144 14 147.892 14H138.568C138.596 14.8493 138.717 15.5913 138.932 16.226C139.147 16.8513 139.441 17.374 139.814 17.794C140.197 18.214 140.649 18.5267 141.172 18.732C141.695 18.9373 142.278 19.04 142.922 19.04C143.529 19.04 144.051 18.97 144.49 18.83C144.938 18.69 145.321 18.5407 145.638 18.382C145.965 18.214 146.235 18.06 146.45 17.92C146.674 17.78 146.87 17.71 147.038 17.71C147.262 17.71 147.435 17.794 147.556 17.962L148.34 18.97ZM167.988 12.306C167.988 11.7647 167.909 11.2653 167.75 10.808C167.601 10.3507 167.377 9.954 167.078 9.618C166.78 9.282 166.416 9.02067 165.986 8.834C165.557 8.64733 165.062 8.554 164.502 8.554C163.354 8.554 162.449 8.88533 161.786 9.548C161.133 10.2107 160.718 11.13 160.54 12.306H167.988ZM170.242 18.97C169.906 19.362 169.519 19.7027 169.08 19.992C168.642 20.272 168.175 20.5007 167.68 20.678C167.186 20.8553 166.672 20.986 166.14 21.07C165.618 21.154 165.1 21.196 164.586 21.196C163.606 21.196 162.696 21.0327 161.856 20.706C161.026 20.37 160.302 19.8847 159.686 19.25C159.08 18.606 158.604 17.8127 158.258 16.87C157.922 15.918 157.754 14.826 157.754 13.594C157.754 12.6047 157.908 11.6853 158.216 10.836C158.524 9.97733 158.963 9.23067 159.532 8.596C160.111 7.96133 160.816 7.462 161.646 7.098C162.477 6.734 163.41 6.552 164.446 6.552C165.314 6.552 166.112 6.69667 166.84 6.986C167.578 7.266 168.212 7.67667 168.744 8.218C169.276 8.75933 169.692 9.42667 169.99 10.22C170.298 11.0133 170.452 11.9187 170.452 12.936C170.452 13.356 170.406 13.6407 170.312 13.79C170.219 13.93 170.046 14 169.794 14H160.47C160.498 14.8493 160.62 15.5913 160.834 16.226C161.049 16.8513 161.343 17.374 161.716 17.794C162.099 18.214 162.552 18.5267 163.074 18.732C163.597 18.9373 164.18 19.04 164.824 19.04C165.431 19.04 165.954 18.97 166.392 18.83C166.84 18.69 167.223 18.5407 167.54 18.382C167.867 18.214 168.138 18.06 168.352 17.92C168.576 17.78 168.772 17.71 168.94 17.71C169.164 17.71 169.337 17.794 169.458 17.962L170.242 18.97ZM174.161 21V9.016L172.677 8.834C172.462 8.78733 172.285 8.71267 172.145 8.61C172.014 8.498 171.949 8.33933 171.949 8.134V7H174.161V5.936C174.161 5.124 174.277 4.40067 174.511 3.766C174.744 3.13133 175.075 2.59467 175.505 2.156C175.943 1.708 176.466 1.372 177.073 1.148C177.689 0.914665 178.379 0.797999 179.145 0.797999C179.789 0.797999 180.381 0.891332 180.923 1.078L180.867 2.464C180.857 2.576 180.82 2.66467 180.755 2.73C180.689 2.786 180.601 2.828 180.489 2.856C180.386 2.884 180.255 2.90267 180.097 2.912C179.947 2.912 179.784 2.912 179.607 2.912C179.187 2.912 178.804 2.96333 178.459 3.066C178.113 3.16867 177.819 3.34133 177.577 3.584C177.334 3.82667 177.147 4.14867 177.017 4.55C176.886 4.942 176.821 5.432 176.821 6.02V7H183.037V5.544C183.037 4.732 183.153 4.00867 183.387 3.374C183.62 2.73933 183.951 2.20267 184.381 1.764C184.819 1.316 185.347 0.979999 185.963 0.755999C186.579 0.522666 187.269 0.405999 188.035 0.405999C188.66 0.405999 189.253 0.499332 189.813 0.685999L189.743 2.058C189.733 2.17933 189.696 2.27267 189.631 2.338C189.575 2.394 189.491 2.436 189.379 2.464C189.267 2.492 189.136 2.51067 188.987 2.52C188.837 2.52 188.669 2.52 188.483 2.52C188.063 2.52 187.68 2.57133 187.335 2.674C186.989 2.77667 186.695 2.94933 186.453 3.192C186.21 3.43467 186.023 3.75667 185.893 4.158C185.762 4.55 185.697 5.04 185.697 5.628V7H189.687V8.988H185.781V21H183.037V8.988H176.905V21H174.161ZM200.965 12.306C200.965 11.7647 200.886 11.2653 200.727 10.808C200.578 10.3507 200.354 9.954 200.055 9.618C199.756 9.282 199.392 9.02067 198.963 8.834C198.534 8.64733 198.039 8.554 197.479 8.554C196.331 8.554 195.426 8.88533 194.763 9.548C194.11 10.2107 193.694 11.13 193.517 12.306H200.965ZM203.219 18.97C202.883 19.362 202.496 19.7027 202.057 19.992C201.618 20.272 201.152 20.5007 200.657 20.678C200.162 20.8553 199.649 20.986 199.117 21.07C198.594 21.154 198.076 21.196 197.563 21.196C196.583 21.196 195.673 21.0327 194.833 20.706C194.002 20.37 193.279 19.8847 192.663 19.25C192.056 18.606 191.58 17.8127 191.235 16.87C190.899 15.918 190.731 14.826 190.731 13.594C190.731 12.6047 190.885 11.6853 191.193 10.836C191.501 9.97733 191.94 9.23067 192.509 8.596C193.088 7.96133 193.792 7.462 194.623 7.098C195.454 6.734 196.387 6.552 197.423 6.552C198.291 6.552 199.089 6.69667 199.817 6.986C200.554 7.266 201.189 7.67667 201.721 8.218C202.253 8.75933 202.668 9.42667 202.967 10.22C203.275 11.0133 203.429 11.9187 203.429 12.936C203.429 13.356 203.382 13.6407 203.289 13.79C203.196 13.93 203.023 14 202.771 14H193.447C193.475 14.8493 193.596 15.5913 193.811 16.226C194.026 16.8513 194.32 17.374 194.693 17.794C195.076 18.214 195.528 18.5267 196.051 18.732C196.574 18.9373 197.157 19.04 197.801 19.04C198.408 19.04 198.93 18.97 199.369 18.83C199.817 18.69 200.2 18.5407 200.517 18.382C200.844 18.214 201.114 18.06 201.329 17.92C201.553 17.78 201.749 17.71 201.917 17.71C202.141 17.71 202.314 17.794 202.435 17.962L203.219 18.97ZM216.331 9.436C216.247 9.53867 216.163 9.62267 216.079 9.688C216.005 9.744 215.893 9.772 215.743 9.772C215.594 9.772 215.435 9.716 215.267 9.604C215.109 9.48267 214.903 9.35667 214.651 9.226C214.409 9.086 214.11 8.96 213.755 8.848C213.41 8.72667 212.981 8.666 212.467 8.666C211.795 8.666 211.203 8.78733 210.689 9.03C210.176 9.27267 209.747 9.618 209.401 10.066C209.065 10.514 208.809 11.06 208.631 11.704C208.454 12.348 208.365 13.0713 208.365 13.874C208.365 14.7047 208.459 15.4467 208.645 16.1C208.832 16.744 209.098 17.29 209.443 17.738C209.789 18.1767 210.209 18.5127 210.703 18.746C211.198 18.97 211.749 19.082 212.355 19.082C212.943 19.082 213.429 19.012 213.811 18.872C214.194 18.7227 214.511 18.564 214.763 18.396C215.015 18.228 215.225 18.074 215.393 17.934C215.561 17.7847 215.734 17.71 215.911 17.71C216.135 17.71 216.308 17.794 216.429 17.962L217.213 18.97C216.887 19.3713 216.518 19.712 216.107 19.992C215.706 20.272 215.277 20.5007 214.819 20.678C214.362 20.8553 213.881 20.986 213.377 21.07C212.883 21.154 212.379 21.196 211.865 21.196C210.979 21.196 210.148 21.0327 209.373 20.706C208.608 20.3793 207.941 19.9033 207.371 19.278C206.811 18.6527 206.368 17.8873 206.041 16.982C205.715 16.0673 205.551 15.0313 205.551 13.874C205.551 12.8193 205.696 11.844 205.985 10.948C206.284 10.052 206.718 9.282 207.287 8.638C207.866 7.98467 208.575 7.476 209.415 7.112C210.255 6.73867 211.217 6.552 212.299 6.552C213.317 6.552 214.213 6.71533 214.987 7.042C215.762 7.36867 216.453 7.83067 217.059 8.428L216.331 9.436ZM233.244 21H230.5V8.988H223.36V17.318C223.36 17.878 223.495 18.298 223.766 18.578C224.046 18.8487 224.4 18.984 224.83 18.984C225.082 18.984 225.296 18.9513 225.474 18.886C225.66 18.8207 225.819 18.7507 225.95 18.676C226.08 18.592 226.192 18.5173 226.286 18.452C226.379 18.3867 226.463 18.354 226.538 18.354C226.631 18.354 226.701 18.3773 226.748 18.424C226.804 18.4613 226.86 18.5267 226.916 18.62L227.728 19.936C227.28 20.3467 226.748 20.664 226.132 20.888C225.516 21.112 224.876 21.224 224.214 21.224C223.066 21.224 222.179 20.902 221.554 20.258C220.938 19.614 220.63 18.6947 220.63 17.5V8.988H218.978C218.819 8.988 218.684 8.94133 218.572 8.848C218.469 8.74533 218.418 8.596 218.418 8.4V7.294L220.742 6.972L221.344 2.73C221.381 2.57133 221.451 2.45 221.554 2.366C221.666 2.27267 221.806 2.226 221.974 2.226H223.36V7H233.244V21ZM233.86 2.296C233.86 2.548 233.808 2.79067 233.706 3.024C233.603 3.248 233.463 3.44867 233.286 3.626C233.118 3.794 232.917 3.92933 232.684 4.032C232.45 4.12533 232.208 4.172 231.956 4.172C231.704 4.172 231.466 4.12533 231.242 4.032C231.018 3.92933 230.817 3.794 230.64 3.626C230.472 3.44867 230.336 3.248 230.234 3.024C230.14 2.79067 230.094 2.548 230.094 2.296C230.094 2.03467 230.14 1.78733 230.234 1.554C230.336 1.32067 230.472 1.12 230.64 0.951999C230.817 0.774666 231.018 0.639332 231.242 0.545999C231.466 0.443332 231.704 0.391998 231.956 0.391998C232.208 0.391998 232.45 0.443332 232.684 0.545999C232.917 0.639332 233.118 0.774666 233.286 0.951999C233.463 1.12 233.603 1.32067 233.706 1.554C233.808 1.78733 233.86 2.03467 233.86 2.296ZM249.555 6.776L243.787 21H241.323L235.555 6.776H237.809C238.024 6.776 238.201 6.82733 238.341 6.93C238.481 7.03267 238.574 7.16333 238.621 7.322L242.023 16.058C242.144 16.422 242.247 16.786 242.331 17.15C242.424 17.5047 242.508 17.8593 242.583 18.214C242.658 17.8593 242.742 17.5047 242.835 17.15C242.928 16.7953 243.04 16.4313 243.171 16.058L246.615 7.322C246.671 7.16333 246.769 7.03267 246.909 6.93C247.049 6.82733 247.217 6.776 247.413 6.776H249.555ZM260.738 12.306C260.738 11.7647 260.659 11.2653 260.5 10.808C260.351 10.3507 260.127 9.954 259.828 9.618C259.53 9.282 259.166 9.02067 258.736 8.834C258.307 8.64733 257.812 8.554 257.252 8.554C256.104 8.554 255.199 8.88533 254.536 9.548C253.883 10.2107 253.468 11.13 253.29 12.306H260.738ZM262.992 18.97C262.656 19.362 262.269 19.7027 261.83 19.992C261.392 20.272 260.925 20.5007 260.43 20.678C259.936 20.8553 259.422 20.986 258.89 21.07C258.368 21.154 257.85 21.196 257.336 21.196C256.356 21.196 255.446 21.0327 254.606 20.706C253.776 20.37 253.052 19.8847 252.436 19.25C251.83 18.606 251.354 17.8127 251.008 16.87C250.672 15.918 250.504 14.826 250.504 13.594C250.504 12.6047 250.658 11.6853 250.966 10.836C251.274 9.97733 251.713 9.23067 252.282 8.596C252.861 7.96133 253.566 7.462 254.396 7.098C255.227 6.734 256.16 6.552 257.196 6.552C258.064 6.552 258.862 6.69667 259.59 6.986C260.328 7.266 260.962 7.67667 261.494 8.218C262.026 8.75933 262.442 9.42667 262.74 10.22C263.048 11.0133 263.202 11.9187 263.202 12.936C263.202 13.356 263.156 13.6407 263.062 13.79C262.969 13.93 262.796 14 262.544 14H253.22C253.248 14.8493 253.37 15.5913 253.584 16.226C253.799 16.8513 254.093 17.374 254.466 17.794C254.849 18.214 255.302 18.5267 255.824 18.732C256.347 18.9373 256.93 19.04 257.574 19.04C258.181 19.04 258.704 18.97 259.142 18.83C259.59 18.69 259.973 18.5407 260.29 18.382C260.617 18.214 260.888 18.06 261.102 17.92C261.326 17.78 261.522 17.71 261.69 17.71C261.914 17.71 262.087 17.794 262.208 17.962L262.992 18.97ZM268.937 0.335999V21H266.193V0.335999H268.937ZM285.268 6.776L277.372 25.13C277.288 25.3353 277.176 25.494 277.036 25.606C276.896 25.718 276.691 25.774 276.42 25.774H274.39L276.994 20.104L271.156 6.776H273.536C273.769 6.776 273.951 6.832 274.082 6.944C274.213 7.056 274.306 7.182 274.362 7.322L277.974 15.862C278.049 16.0767 278.119 16.296 278.184 16.52C278.259 16.7347 278.319 16.9493 278.366 17.164C278.431 16.94 278.501 16.7207 278.576 16.506C278.651 16.282 278.73 16.0627 278.814 15.848L282.3 7.322C282.365 7.16333 282.468 7.03267 282.608 6.93C282.748 6.82733 282.907 6.776 283.084 6.776H285.268ZM305.584 6.776V21H303.946C303.573 21 303.33 20.818 303.218 20.454L303.022 19.026C302.714 19.3527 302.392 19.6513 302.056 19.922C301.72 20.1927 301.361 20.426 300.978 20.622C300.595 20.8087 300.189 20.9533 299.76 21.056C299.331 21.168 298.869 21.224 298.374 21.224C297.59 21.224 296.899 21.0933 296.302 20.832C295.714 20.5707 295.219 20.2067 294.818 19.74C294.417 19.264 294.113 18.6947 293.908 18.032C293.703 17.3693 293.6 16.6367 293.6 15.834V6.776H296.344V15.834C296.344 16.8513 296.577 17.6447 297.044 18.214C297.511 18.774 298.225 19.054 299.186 19.054C299.886 19.054 300.539 18.8907 301.146 18.564C301.753 18.228 302.322 17.7707 302.854 17.192V6.776H305.584ZM317.781 9.226C317.706 9.34733 317.627 9.436 317.543 9.492C317.459 9.53867 317.351 9.562 317.221 9.562C317.071 9.562 316.903 9.51067 316.717 9.408C316.539 9.30533 316.32 9.19333 316.059 9.072C315.807 8.95067 315.508 8.83867 315.163 8.736C314.817 8.63333 314.407 8.582 313.931 8.582C313.539 8.582 313.179 8.63333 312.853 8.736C312.535 8.82933 312.265 8.96467 312.041 9.142C311.817 9.31 311.644 9.51533 311.523 9.758C311.401 9.99133 311.341 10.2433 311.341 10.514C311.341 10.8687 311.443 11.1627 311.649 11.396C311.863 11.6293 312.139 11.83 312.475 11.998C312.82 12.166 313.207 12.32 313.637 12.46C314.075 12.5907 314.519 12.7307 314.967 12.88C315.424 13.0293 315.867 13.202 316.297 13.398C316.735 13.5847 317.123 13.8227 317.459 14.112C317.804 14.392 318.079 14.7327 318.285 15.134C318.499 15.5353 318.607 16.0253 318.607 16.604C318.607 17.2667 318.485 17.8827 318.243 18.452C318.009 19.012 317.659 19.4973 317.193 19.908C316.735 20.3187 316.166 20.6407 315.485 20.874C314.803 21.1073 314.024 21.224 313.147 21.224C312.167 21.224 311.261 21.0607 310.431 20.734C309.6 20.4073 308.905 19.992 308.345 19.488L308.989 18.438C309.063 18.3073 309.157 18.2093 309.269 18.144C309.381 18.0693 309.53 18.032 309.717 18.032C309.894 18.032 310.076 18.0973 310.263 18.228C310.449 18.3587 310.673 18.5033 310.935 18.662C311.196 18.8113 311.513 18.9513 311.887 19.082C312.26 19.2033 312.727 19.264 313.287 19.264C313.753 19.264 314.159 19.208 314.505 19.096C314.85 18.9747 315.135 18.816 315.359 18.62C315.592 18.4147 315.765 18.1813 315.877 17.92C315.989 17.6587 316.045 17.3833 316.045 17.094C316.045 16.7207 315.937 16.4127 315.723 16.17C315.517 15.918 315.242 15.7033 314.897 15.526C314.561 15.3487 314.173 15.1947 313.735 15.064C313.296 14.9333 312.848 14.7933 312.391 14.644C311.933 14.4947 311.485 14.322 311.047 14.126C310.608 13.93 310.216 13.6827 309.871 13.384C309.535 13.0853 309.259 12.7213 309.045 12.292C308.839 11.8627 308.737 11.34 308.737 10.724C308.737 10.1733 308.849 9.646 309.073 9.142C309.306 8.638 309.637 8.19467 310.067 7.812C310.505 7.42933 311.042 7.126 311.677 6.902C312.321 6.66867 313.053 6.552 313.875 6.552C314.817 6.552 315.667 6.70133 316.423 7C317.188 7.29867 317.841 7.70933 318.383 8.232L317.781 9.226ZM330.985 12.306C330.985 11.7647 330.905 11.2653 330.747 10.808C330.597 10.3507 330.373 9.954 330.075 9.618C329.776 9.282 329.412 9.02067 328.983 8.834C328.553 8.64733 328.059 8.554 327.499 8.554C326.351 8.554 325.445 8.88533 324.783 9.548C324.129 10.2107 323.714 11.13 323.537 12.306H330.985ZM333.239 18.97C332.903 19.362 332.515 19.7027 332.077 19.992C331.638 20.272 331.171 20.5007 330.677 20.678C330.182 20.8553 329.669 20.986 329.137 21.07C328.614 21.154 328.096 21.196 327.583 21.196C326.603 21.196 325.693 21.0327 324.853 20.706C324.022 20.37 323.299 19.8847 322.683 19.25C322.076 18.606 321.6 17.8127 321.255 16.87C320.919 15.918 320.751 14.826 320.751 13.594C320.751 12.6047 320.905 11.6853 321.213 10.836C321.521 9.97733 321.959 9.23067 322.529 8.596C323.107 7.96133 323.812 7.462 324.643 7.098C325.473 6.734 326.407 6.552 327.443 6.552C328.311 6.552 329.109 6.69667 329.837 6.986C330.574 7.266 331.209 7.67667 331.741 8.218C332.273 8.75933 332.688 9.42667 332.987 10.22C333.295 11.0133 333.449 11.9187 333.449 12.936C333.449 13.356 333.402 13.6407 333.309 13.79C333.215 13.93 333.043 14 332.791 14H323.467C323.495 14.8493 323.616 15.5913 323.831 16.226C324.045 16.8513 324.339 17.374 324.713 17.794C325.095 18.214 325.548 18.5267 326.071 18.732C326.593 18.9373 327.177 19.04 327.821 19.04C328.427 19.04 328.95 18.97 329.389 18.83C329.837 18.69 330.219 18.5407 330.537 18.382C330.863 18.214 331.134 18.06 331.349 17.92C331.573 17.78 331.769 17.71 331.937 17.71C332.161 17.71 332.333 17.794 332.455 17.962L333.239 18.97ZM357.563 2.002C357.563 2.338 357.46 2.66 357.255 2.968L346.153 18.578H357.367V21H342.247V19.824C342.247 19.6653 342.27 19.516 342.317 19.376C342.373 19.236 342.443 19.1007 342.527 18.97L353.657 3.318H342.807V0.895998H357.563V2.002ZM371.537 6.776V21H369.899C369.526 21 369.283 20.818 369.171 20.454L368.975 19.026C368.667 19.3527 368.345 19.6513 368.009 19.922C367.673 20.1927 367.314 20.426 366.931 20.622C366.548 20.8087 366.142 20.9533 365.713 21.056C365.284 21.168 364.822 21.224 364.327 21.224C363.543 21.224 362.852 21.0933 362.255 20.832C361.667 20.5707 361.172 20.2067 360.771 19.74C360.37 19.264 360.066 18.6947 359.861 18.032C359.656 17.3693 359.553 16.6367 359.553 15.834V6.776H362.297V15.834C362.297 16.8513 362.53 17.6447 362.997 18.214C363.464 18.774 364.178 19.054 365.139 19.054C365.839 19.054 366.492 18.8907 367.099 18.564C367.706 18.228 368.275 17.7707 368.807 17.192V6.776H371.537ZM377.924 9.506C378.381 8.57267 378.932 7.84 379.576 7.308C380.22 6.776 380.994 6.51 381.9 6.51C382.208 6.51 382.497 6.54733 382.768 6.622C383.048 6.68733 383.29 6.79 383.496 6.93L383.314 8.988C383.248 9.24 383.094 9.366 382.852 9.366C382.721 9.366 382.525 9.34267 382.264 9.296C382.002 9.24 381.722 9.212 381.424 9.212C380.985 9.212 380.598 9.27733 380.262 9.408C379.926 9.52933 379.622 9.716 379.352 9.968C379.09 10.2107 378.857 10.514 378.652 10.878C378.446 11.2327 378.255 11.6387 378.078 12.096V21H375.348V6.776H376.916C377.214 6.776 377.415 6.832 377.518 6.944C377.63 7.04667 377.709 7.23333 377.756 7.504L377.924 9.506ZM388.458 6.776V21H385.728V6.776H388.458ZM388.976 2.38C388.976 2.632 388.924 2.87467 388.822 3.108C388.719 3.332 388.579 3.53267 388.402 3.71C388.234 3.878 388.033 4.01333 387.8 4.116C387.566 4.20933 387.324 4.256 387.072 4.256C386.82 4.256 386.582 4.20933 386.358 4.116C386.134 4.01333 385.933 3.878 385.756 3.71C385.588 3.53267 385.452 3.332 385.35 3.108C385.256 2.87467 385.21 2.632 385.21 2.38C385.21 2.11867 385.256 1.876 385.35 1.652C385.452 1.41867 385.588 1.218 385.756 1.05C385.933 0.872665 386.134 0.737332 386.358 0.643998C386.582 0.541332 386.82 0.49 387.072 0.49C387.324 0.49 387.566 0.541332 387.8 0.643998C388.033 0.737332 388.234 0.872665 388.402 1.05C388.579 1.218 388.719 1.41867 388.822 1.652C388.924 1.876 388.976 2.11867 388.976 2.38ZM414.094 16.688C414.262 16.688 414.407 16.7533 414.528 16.884L415.704 18.172C414.883 19.1427 413.88 19.894 412.694 20.426C411.518 20.958 410.1 21.224 408.438 21.224C406.982 21.224 405.662 20.972 404.476 20.468C403.3 19.964 402.292 19.2593 401.452 18.354C400.622 17.4487 399.978 16.366 399.52 15.106C399.063 13.846 398.834 12.46 398.834 10.948C398.834 9.436 399.072 8.05 399.548 6.79C400.034 5.53 400.71 4.44733 401.578 3.542C402.446 2.63667 403.482 1.932 404.686 1.428C405.9 0.923999 407.239 0.672 408.704 0.672C410.132 0.672 411.402 0.905333 412.512 1.372C413.623 1.83867 414.589 2.45933 415.41 3.234L414.43 4.62C414.365 4.72267 414.281 4.80667 414.178 4.872C414.085 4.93733 413.959 4.97 413.8 4.97C413.623 4.97 413.413 4.88133 413.17 4.704C412.937 4.52667 412.624 4.33067 412.232 4.116C411.85 3.892 411.374 3.69133 410.804 3.514C410.235 3.33667 409.526 3.248 408.676 3.248C407.678 3.248 406.763 3.42533 405.932 3.78C405.102 4.12533 404.383 4.62933 403.776 5.292C403.179 5.94533 402.712 6.75267 402.376 7.714C402.05 8.666 401.886 9.744 401.886 10.948C401.886 12.1707 402.059 13.258 402.404 14.21C402.75 15.162 403.226 15.9693 403.832 16.632C404.439 17.2947 405.153 17.7987 405.974 18.144C406.796 18.4893 407.682 18.662 408.634 18.662C409.213 18.662 409.731 18.6293 410.188 18.564C410.655 18.4893 411.08 18.382 411.462 18.242C411.854 18.102 412.223 17.9247 412.568 17.71C412.914 17.486 413.254 17.22 413.59 16.912C413.665 16.8467 413.744 16.7953 413.828 16.758C413.912 16.7113 414.001 16.688 414.094 16.688ZM420.871 8.582C421.468 7.97533 422.126 7.48533 422.845 7.112C423.573 6.73867 424.408 6.552 425.351 6.552C426.135 6.552 426.821 6.68267 427.409 6.944C428.006 7.20533 428.505 7.574 428.907 8.05C429.308 8.51667 429.611 9.08133 429.817 9.744C430.022 10.4067 430.125 11.1393 430.125 11.942V21H427.381V11.942C427.381 10.9247 427.147 10.136 426.681 9.576C426.214 9.00667 425.5 8.722 424.539 8.722C423.839 8.722 423.181 8.89 422.565 9.226C421.958 9.55267 421.393 10.0007 420.871 10.57V21H418.141V0.335999H420.871V8.582ZM441.453 14.686C440.342 14.7233 439.399 14.812 438.625 14.952C437.85 15.0827 437.22 15.26 436.735 15.484C436.249 15.708 435.899 15.974 435.685 16.282C435.47 16.5807 435.363 16.9167 435.363 17.29C435.363 17.6447 435.419 17.9527 435.531 18.214C435.652 18.466 435.811 18.676 436.007 18.844C436.212 19.0027 436.45 19.1193 436.721 19.194C436.991 19.2687 437.285 19.306 437.603 19.306C438.023 19.306 438.405 19.264 438.751 19.18C439.105 19.096 439.437 18.9793 439.745 18.83C440.053 18.6713 440.347 18.48 440.627 18.256C440.907 18.032 441.182 17.7753 441.453 17.486V14.686ZM433.445 8.764C434.238 8.008 435.097 7.44333 436.021 7.07C436.954 6.69667 437.976 6.51 439.087 6.51C439.899 6.51 440.617 6.64533 441.243 6.916C441.868 7.17733 442.395 7.546 442.825 8.022C443.254 8.498 443.576 9.06733 443.791 9.73C444.015 10.3927 444.127 11.1253 444.127 11.928V21H442.909C442.638 21 442.433 20.958 442.293 20.874C442.153 20.7807 442.041 20.6127 441.957 20.37L441.663 19.124C441.299 19.46 440.939 19.7587 440.585 20.02C440.23 20.272 439.857 20.4913 439.465 20.678C439.082 20.8553 438.671 20.9907 438.233 21.084C437.794 21.1773 437.309 21.224 436.777 21.224C436.217 21.224 435.689 21.1493 435.195 21C434.709 20.8413 434.285 20.6033 433.921 20.286C433.557 19.9687 433.267 19.572 433.053 19.096C432.847 18.62 432.745 18.0647 432.745 17.43C432.745 16.87 432.894 16.3333 433.193 15.82C433.501 15.2973 433.995 14.8307 434.677 14.42C435.367 14.0093 436.263 13.6733 437.365 13.412C438.475 13.1507 439.838 13.0013 441.453 12.964V11.928C441.453 10.8547 441.224 10.052 440.767 9.52C440.309 8.988 439.637 8.722 438.751 8.722C438.153 8.722 437.649 8.79667 437.239 8.946C436.837 9.09533 436.487 9.26333 436.189 9.45C435.899 9.62733 435.643 9.79067 435.419 9.94C435.204 10.0893 434.98 10.164 434.747 10.164C434.56 10.164 434.397 10.1127 434.257 10.01C434.126 9.90733 434.019 9.786 433.935 9.646L433.445 8.764ZM452.042 21.224C450.894 21.224 450.007 20.902 449.382 20.258C448.766 19.614 448.458 18.6947 448.458 17.5V8.988H446.806C446.647 8.988 446.512 8.94133 446.4 8.848C446.297 8.74533 446.246 8.596 446.246 8.4V7.294L448.556 6.972L449.172 2.73C449.209 2.57133 449.279 2.45 449.382 2.366C449.494 2.27267 449.634 2.226 449.802 2.226H451.188V7H455.22V8.988H451.188V17.318C451.188 17.878 451.323 18.298 451.594 18.578C451.874 18.8487 452.229 18.984 452.658 18.984C452.91 18.984 453.125 18.9513 453.302 18.886C453.489 18.8207 453.647 18.7507 453.778 18.676C453.909 18.592 454.021 18.5173 454.114 18.452C454.207 18.3867 454.291 18.354 454.366 18.354C454.459 18.354 454.529 18.3773 454.576 18.424C454.632 18.4613 454.688 18.5267 454.744 18.62L455.556 19.936C455.108 20.3467 454.576 20.664 453.96 20.888C453.344 21.112 452.705 21.224 452.042 21.224ZM456.922 2.688C457.221 2.41733 457.548 2.16067 457.902 1.918C458.257 1.67533 458.644 1.46067 459.064 1.274C459.484 1.08733 459.937 0.942666 460.422 0.839999C460.917 0.728 461.449 0.672 462.018 0.672C462.774 0.672 463.47 0.779333 464.104 0.994C464.748 1.20867 465.299 1.51667 465.756 1.918C466.223 2.31933 466.587 2.80467 466.848 3.374C467.11 3.934 467.24 4.564 467.24 5.264C467.24 5.97333 467.133 6.58933 466.918 7.112C466.713 7.62533 466.452 8.07333 466.134 8.456C465.817 8.83867 465.467 9.17467 465.084 9.464C464.711 9.744 464.356 10.01 464.02 10.262C463.694 10.514 463.409 10.766 463.166 11.018C462.933 11.2607 462.793 11.536 462.746 11.844L462.48 13.958H460.618L460.422 11.648C460.376 11.2187 460.45 10.8453 460.646 10.528C460.842 10.2107 461.094 9.91667 461.402 9.646C461.72 9.366 462.07 9.09533 462.452 8.834C462.835 8.57267 463.19 8.28333 463.516 7.966C463.843 7.63933 464.118 7.27533 464.342 6.874C464.566 6.46333 464.678 5.978 464.678 5.418C464.678 5.03533 464.604 4.69 464.454 4.382C464.305 4.074 464.1 3.81267 463.838 3.598C463.577 3.374 463.269 3.206 462.914 3.094C462.56 2.97267 462.182 2.912 461.78 2.912C461.22 2.912 460.744 2.982 460.352 3.122C459.96 3.25267 459.624 3.39733 459.344 3.556C459.074 3.71467 458.85 3.864 458.672 4.004C458.495 4.13467 458.346 4.2 458.224 4.2C457.954 4.2 457.758 4.08333 457.636 3.85L456.922 2.688ZM459.638 19.362C459.638 19.11 459.685 18.872 459.778 18.648C459.872 18.424 459.998 18.228 460.156 18.06C460.324 17.892 460.52 17.7613 460.744 17.668C460.968 17.5653 461.211 17.514 461.472 17.514C461.724 17.514 461.962 17.5653 462.186 17.668C462.41 17.7613 462.606 17.892 462.774 18.06C462.942 18.228 463.073 18.424 463.166 18.648C463.269 18.872 463.32 19.11 463.32 19.362C463.32 19.6233 463.269 19.866 463.166 20.09C463.073 20.314 462.942 20.51 462.774 20.678C462.606 20.846 462.41 20.9767 462.186 21.07C461.962 21.1633 461.724 21.21 461.472 21.21C461.211 21.21 460.968 21.1633 460.744 21.07C460.52 20.9767 460.324 20.846 460.156 20.678C459.998 20.51 459.872 20.314 459.778 20.09C459.685 19.866 459.638 19.6233 459.638 19.362Z" fill="#3A3A3A"/>
</svg>
