<svg width="19" height="19" viewBox="0 0 19 19" fill="none" xmlns="http://www.w3.org/2000/svg">
<g clip-path="url(#clip0)">
<path d="M12.9711 0.474121H6.2211C4.72926 0.474121 3.29852 1.06675 2.24362 2.12165C1.18873 3.17654 0.5961 4.60728 0.5961 6.09912L0.5961 12.8491C0.5961 14.341 1.18873 15.7717 2.24362 16.8266C3.29852 17.8815 4.72926 18.4741 6.2211 18.4741H12.9711C14.4629 18.4741 15.8937 17.8815 16.9486 16.8266C18.0035 15.7717 18.5961 14.341 18.5961 12.8491V6.09912C18.5961 4.60728 18.0035 3.17654 16.9486 2.12165C15.8937 1.06675 14.4629 0.474121 12.9711 0.474121V0.474121ZM16.9086 12.8491C16.9086 15.0204 15.1423 16.7866 12.9711 16.7866H6.2211C4.04985 16.7866 2.2836 15.0204 2.2836 12.8491V6.09912C2.2836 3.92787 4.04985 2.16162 6.2211 2.16162H12.9711C15.1423 2.16162 16.9086 3.92787 16.9086 6.09912V12.8491Z" fill="url(#paint0_linear)"/>
<path d="M9.5961 4.97412C8.40263 4.97412 7.25803 5.44823 6.41412 6.29214C5.57021 7.13605 5.0961 8.28065 5.0961 9.47412C5.0961 10.6676 5.57021 11.8122 6.41412 12.6561C7.25803 13.5 8.40263 13.9741 9.5961 13.9741C10.7896 13.9741 11.9342 13.5 12.7781 12.6561C13.622 11.8122 14.0961 10.6676 14.0961 9.47412C14.0961 8.28065 13.622 7.13605 12.7781 6.29214C11.9342 5.44823 10.7896 4.97412 9.5961 4.97412ZM9.5961 12.2866C8.85045 12.2857 8.1356 11.9891 7.60835 11.4619C7.0811 10.9346 6.78449 10.2198 6.7836 9.47412C6.7836 7.92275 8.04585 6.66162 9.5961 6.66162C11.1463 6.66162 12.4086 7.92275 12.4086 9.47412C12.4086 11.0244 11.1463 12.2866 9.5961 12.2866Z" fill="url(#paint1_linear)"/>
<path d="M14.4336 5.23636C14.7648 5.23636 15.0332 4.9679 15.0332 4.63673C15.0332 4.30557 14.7648 4.03711 14.4336 4.03711C14.1024 4.03711 13.834 4.30557 13.834 4.63673C13.834 4.9679 14.1024 5.23636 14.4336 5.23636Z" fill="url(#paint2_linear)"/>
</g>
<defs>
<linearGradient id="paint0_linear" x1="2.24366" y1="16.8266" x2="16.9485" y2="2.12168" gradientUnits="userSpaceOnUse">
<stop stop-color="#FFC107"/>
<stop offset="0.5074" stop-color="#F44336"/>
<stop offset="0.9901" stop-color="#9C27B0"/>
</linearGradient>
<linearGradient id="paint1_linear" x1="6.41415" y1="12.6561" x2="12.778" y2="6.29217" gradientUnits="userSpaceOnUse">
<stop stop-color="#FFC107"/>
<stop offset="0.5074" stop-color="#F44336"/>
<stop offset="0.9901" stop-color="#9C27B0"/>
</linearGradient>
<linearGradient id="paint2_linear" x1="14.0094" y1="5.06097" x2="14.8578" y2="4.2125" gradientUnits="userSpaceOnUse">
<stop stop-color="#FFC107"/>
<stop offset="0.5074" stop-color="#F44336"/>
<stop offset="0.9901" stop-color="#9C27B0"/>
</linearGradient>
<clipPath id="clip0">
<rect width="18" height="18" fill="white" transform="translate(0.5961 0.474121)"/>
</clipPath>
</defs>
</svg>
