<svg width="19" height="21" viewBox="0 0 19 21" fill="none" xmlns="http://www.w3.org/2000/svg">
<g clip-path="url(#clip0)">
<path d="M0.5961 6.8374H4.62135V20.1726H0.5961V6.8374Z" fill="#1976D2"/>
<path d="M15.5856 6.99379C15.5429 6.97924 15.5023 6.96348 15.4573 6.95015C15.4033 6.93697 15.3489 6.92565 15.2942 6.9162C15.0565 6.86384 14.8146 6.83744 14.572 6.8374C12.2252 6.8374 10.7368 8.67644 10.2463 9.38684V6.8374H6.2211V20.1726H10.2463V12.8988C10.2463 12.8988 13.2884 8.33337 14.572 11.6866V20.1726H18.5961V11.1738C18.5944 10.2162 18.298 9.28634 17.7531 8.52989C17.2083 7.77343 16.446 7.23317 15.5856 6.99379Z" fill="#1976D2"/>
<path d="M2.56485 5.01889C3.65216 5.01889 4.5336 4.06906 4.5336 2.89738C4.5336 1.72571 3.65216 0.775879 2.56485 0.775879C1.47754 0.775879 0.5961 1.72571 0.5961 2.89738C0.5961 4.06906 1.47754 5.01889 2.56485 5.01889Z" fill="#1976D2"/>
</g>
<defs>
<clipPath id="clip0">
<rect width="18" height="19.3966" fill="white" transform="translate(0.5961 0.775879)"/>
</clipPath>
</defs>
</svg>
