<svg width="19" height="21" viewBox="0 0 19 21" fill="none" xmlns="http://www.w3.org/2000/svg">
<g clip-path="url(#clip0)">
<path d="M18.5961 5.06623C17.919 5.38446 17.2029 5.59595 16.4698 5.6942C17.2424 5.20035 17.8199 4.41834 18.0932 3.49632C17.3699 3.95861 16.5785 4.28416 15.7532 4.45888C15.2472 3.87671 14.5905 3.47198 13.8683 3.29726C13.1461 3.12254 12.3918 3.18591 11.7034 3.47914C11.0151 3.77236 10.4245 4.2819 10.0083 4.94153C9.5922 5.60117 9.36978 6.38042 9.36997 7.17804C9.36997 7.49324 9.39472 7.79631 9.45547 8.08483C7.98744 8.00727 6.55113 7.5967 5.24044 6.87996C3.92975 6.16322 2.7742 5.15645 1.84935 3.92547C1.37552 4.80057 1.22903 5.83738 1.43972 6.82478C1.6504 7.81219 2.20241 8.67593 2.98335 9.24014C2.3992 9.22326 1.82738 9.05529 1.3161 8.75038V8.79402C1.31708 9.71225 1.6116 10.6021 2.15008 11.3137C2.68857 12.0254 3.43813 12.5154 4.2726 12.7012C3.95691 12.7909 3.63156 12.8349 3.3051 12.8322C3.07064 12.8366 2.83641 12.8139 2.60647 12.7643C2.84491 13.5535 3.30453 14.2437 3.92204 14.7398C4.53956 15.2358 5.28461 15.5134 6.0546 15.5343C4.74841 16.6351 3.13745 17.2323 1.47922 17.2303C1.1766 17.2303 0.88635 17.2158 0.5961 17.1758C2.28347 18.3475 4.24974 18.9673 6.2571 18.9603C13.0476 18.9603 16.7601 12.8988 16.7601 7.64477C16.7601 7.46899 16.7545 7.29927 16.7466 7.13076C17.4744 6.56945 18.1012 5.86984 18.5961 5.06623V5.06623Z" fill="#03A9F4"/>
</g>
<defs>
<clipPath id="clip0">
<rect width="18" height="19.3966" fill="white" transform="translate(0.5961 0.775879)"/>
</clipPath>
</defs>
</svg>
